<?xml version="1.0" encoding="UTF-8"?>
<svg version="1.1" xmlns="http://www.w3.org/2000/svg" width="378" height="440">
<path d="M0 0 C4.96592392 1.0143808 9.71126216 2.49292183 14.52734375 4.05664062 C24.1897963 7.05322401 31.24281749 4.97335001 40.54882812 1.83007812 C49.01653416 -0.89420277 49.01653416 -0.89420277 53.84375 0.78515625 C56.13143077 4.2166774 55.91462072 5.62602847 55.30175781 9.58251953 C54.54535545 13.22018589 53.37807153 16.69742148 52.21875 20.22265625 C49.69612676 28.49076221 49.56039804 33.58133637 52.078125 41.85546875 C52.41674561 42.97598633 52.41674561 42.97598633 52.76220703 44.11914062 C53.22306528 45.61350613 53.7024275 47.10232674 54.20263672 48.58398438 C55.72513939 53.31871631 56.10531167 56.8281109 54.84375 61.78515625 C50.36937851 64.022342 45.6900949 62.87579168 41.13671875 61.40234375 C38.57649761 60.54432369 36.02977982 59.65962513 33.49023438 58.7421875 C26.97256216 56.58799914 22.39180479 56.86465087 15.84375 58.78515625 C13.96623047 59.31496094 13.96623047 59.31496094 12.05078125 59.85546875 C9.77915852 60.56126638 7.50832834 61.26961972 5.23828125 61.98046875 C1.5976325 62.84349941 -1.43021007 63.1400172 -5.15625 62.78515625 C-7.44116381 59.35778553 -7.22608118 57.97231519 -6.61425781 54.0234375 C-5.67300054 49.42351925 -4.22991512 44.9629103 -2.796875 40.49609375 C0.00548822 31.12267194 -2.68301851 23.34547892 -5.515625 14.3203125 C-6.8469647 9.82895386 -7.65708316 6.39986756 -6.15625 1.78515625 C-3.15625 -0.21484375 -3.15625 -0.21484375 0 0 Z M7.84375 13.78515625 C6.70076306 17.21411707 7.30091468 18.59475198 8.38183594 21.92773438 C11.53544074 31.85803279 10.19553284 39.09076895 6.84375 48.78515625 C10.47506812 48.3053035 13.83230797 47.78862972 17.34375 46.72265625 C24.05107769 44.92605062 29.09031095 45.94461635 35.51171875 48.12890625 C38.08172287 48.96574669 38.08172287 48.96574669 41.84375 48.78515625 C41.6271875 47.95113281 41.410625 47.11710937 41.1875 46.2578125 C38.26049236 34.42782331 38.51272273 26.50323431 41.84375 14.78515625 C38.05674959 12.89165605 33.36582045 15.71672508 29.51953125 16.97265625 C23.63387425 18.27363038 18.60431183 16.84062443 12.90625 15.22265625 C11.94847656 14.95324219 10.99070312 14.68382812 10.00390625 14.40625 C9.29105469 14.20128906 8.57820313 13.99632812 7.84375 13.78515625 Z " fill="#000000" transform="translate(291.15625,47.21484375)"/>
<path d="M0 0 C2.71998874 0.73513209 3.52009592 1.48527264 5.3125 3.625 C8.33846268 10.41121294 8.86101288 17.41398234 8.8125 24.75 C8.80750488 25.75119873 8.80250977 26.75239746 8.79736328 27.78393555 C8.44758198 42.84262346 3.36642788 55.04844585 -6 66.8125 C-8.71459422 70.37227131 -9.85786551 73.02513136 -9.6875 77.625 C-7.19067943 81.86476241 -4.28651334 85.27347296 -0.80859375 88.734375 C0.11244141 89.65347656 1.03347656 90.57257813 1.98242188 91.51953125 C2.69483032 92.22263428 2.69483032 92.22263428 3.42163086 92.93994141 C4.88004028 94.37997678 6.3301706 95.82797274 7.77929688 97.27734375 C13.72593915 103.87825324 13.72593915 103.87825324 21.61328125 107.0078125 C26.08392376 106.54516945 27.95882724 105.21983611 31.5 102.5 C46.80317967 91.261451 62.44830784 87.04208235 81.3125 88.625 C91.12540197 90.14341746 91.12540197 90.14341746 95.12890625 92.85546875 C97.01426165 95.6741684 96.93419867 97.31200049 96.3125 100.625 C94.17159813 102.82127002 92.26173825 104.46747368 89.8125 106.25 C89.13614502 106.76578613 88.45979004 107.28157227 87.76293945 107.81298828 C85.62621988 109.4357821 83.47107167 111.03143018 81.3125 112.625 C80.00284567 113.60796352 78.69422162 114.59230149 77.38671875 115.578125 C75.43494052 117.04748814 73.48128052 118.51392299 71.52099609 119.97192383 C66.26449567 123.88280595 61.09563612 127.89811201 55.9375 131.9375 C32.05195789 150.55939969 32.05195789 150.55939969 17.61328125 149.41015625 C9.74396983 148.25774663 2.81267959 145.520505 -2.6875 139.625 C-6.32274507 141.16311203 -8.66977218 143.34167389 -11.4627533 146.10591125 C-11.92816814 146.56397272 -12.39358297 147.02203418 -12.87310129 147.49397629 C-14.4292163 149.02808993 -15.97813712 150.56926308 -17.52709961 152.1105957 C-18.64234766 153.2133085 -19.75797307 154.31563976 -20.87394714 155.4176178 C-24.53645801 159.03809736 -28.18834117 162.66920517 -31.83984375 166.30078125 C-33.10018357 167.55302274 -34.36059098 168.80519621 -35.62106514 170.05730247 C-41.54598515 175.94412249 -47.46607143 181.83575134 -53.38029951 187.7333129 C-60.19210521 194.52560341 -67.02010773 201.3010437 -73.86250299 208.0625146 C-79.15915009 213.29867212 -84.44019049 218.55025001 -89.70998198 223.81343335 C-92.85324898 226.95201646 -96.00267159 230.08374586 -99.16877556 233.19930458 C-102.15216151 236.13582692 -105.11556337 239.09118321 -108.06537056 242.06142235 C-109.14475889 243.14179452 -110.23088697 244.21548646 -111.32450867 245.28144836 C-117.68927455 251.49428004 -121.97380743 257.16101423 -124.7047205 265.76657391 C-127.52865293 273.9800156 -134.12971404 279.87207798 -141.77734375 283.66015625 C-149.99280877 286.85423397 -159.31811324 286.8591135 -167.53125 283.66015625 C-176.44399877 279.38139099 -181.72444807 273.93805863 -186.5 265.375 C-189.42131551 256.14979314 -189.6444405 246.9072867 -185.49609375 238.09375 C-179.50394722 227.25237316 -171.84370236 222.62108887 -160.3487072 218.85970116 C-157.14126936 217.3715693 -155.21933356 215.54018257 -152.71365356 213.04556274 C-152.00177425 212.34282008 -152.00177425 212.34282008 -151.27551353 211.6258806 C-149.6922743 210.05924773 -148.11991527 208.48213993 -146.54736328 206.90478516 C-145.41261746 205.77738072 -144.27725099 204.65060068 -143.14131165 203.5243988 C-140.06221283 200.46750956 -136.99281713 197.40105149 -133.92575312 194.33209276 C-131.36588453 191.77210453 -128.80168975 189.216471 -126.23759735 186.66071451 C-120.19202381 180.63437048 -114.15465515 174.59989073 -108.12207031 168.56054688 C-101.89193703 162.32376234 -95.64716584 156.1019108 -89.3952142 149.88700449 C-84.03079124 144.55322142 -78.67602402 139.20987787 -73.32884967 133.85880315 C-70.13369768 130.66157894 -66.93484555 127.46828481 -63.72647476 124.28432083 C-60.71285953 121.29287766 -57.71142325 118.28973823 -54.71909142 115.27700996 C-53.61682798 114.17132031 -52.51024848 113.06991479 -51.39917564 111.97307777 C-49.88746569 110.47941427 -48.39185757 108.97131242 -46.89944458 107.45840454 C-46.05696733 106.6166398 -45.21449009 105.77487507 -44.34648323 104.90760231 C-42.44126078 102.80084665 -42.44126078 102.80084665 -42.84051323 100.45499229 C-43.88173802 98.20533101 -45.16790808 96.31822799 -46.625 94.3125 C-52.33711195 85.86076601 -52.95254807 76.85236481 -51.2109375 66.90234375 C-48.66213966 58.36773279 -42.85087792 51.66592161 -37.40673828 44.79589844 C-35.67261449 42.60620393 -33.9569548 40.40321862 -32.24609375 38.1953125 C-29.91115713 35.18259657 -27.56949092 32.17533027 -25.22265625 29.171875 C-21.14320905 23.94025198 -17.12397507 18.66290714 -13.12524414 13.36938477 C-10.6345289 10.09071991 -8.10333231 6.85004455 -5.48046875 3.67578125 C-5.00891357 3.10384033 -4.5373584 2.53189941 -4.05151367 1.94262695 C-2.6875 0.625 -2.6875 0.625 0 0 Z M-4.6875 20.625 C-6.27181652 22.48657191 -7.7361243 24.35070166 -9.1875 26.3125 C-10.09358396 27.51444811 -10.99983862 28.71626754 -11.90625 29.91796875 C-12.60041016 30.84488525 -12.60041016 30.84488525 -13.30859375 31.79052734 C-15.41082697 34.58730149 -17.54981721 37.35529559 -19.6875 40.125 C-20.51440721 41.20175819 -21.34122968 42.27858146 -22.16796875 43.35546875 C-23.88992923 45.59502831 -25.62303072 47.82540825 -27.36328125 50.05078125 C-38.61640011 64.16950405 -38.61640011 64.16950405 -40.6875 81.625 C-38.95766372 87.78409862 -34.77004542 91.96001928 -30.296875 96.3515625 C-28.15381281 99.37889793 -28.25711065 100.96589036 -28.6875 104.625 C-30.48349762 107.15369797 -30.48349762 107.15369797 -33.05334473 109.69891357 C-33.52295325 110.17223751 -33.99256177 110.64556145 -34.47640085 111.13322854 C-36.05176768 112.71379024 -37.64757097 114.27193538 -39.24414062 115.83105469 C-40.37843259 116.96037952 -41.51139145 118.09104466 -42.64311218 119.22294617 C-45.71878759 122.29179831 -48.81244672 125.34193369 -51.90934563 128.38934612 C-55.14375254 131.57881605 -58.3604141 134.78607429 -61.57873535 137.99176025 C-67.67648015 144.06052658 -73.7885059 150.11468169 -79.90649843 156.16302896 C-90.87190817 167.00454942 -101.81298007 177.87060688 -112.74871016 188.74205518 C-116.58971191 192.5593346 -120.43696872 196.37016749 -124.28949738 200.17581224 C-126.67967487 202.53841712 -129.06594482 204.90494065 -131.451334 207.27237892 C-132.56222714 208.37309866 -133.67486639 209.47205923 -134.78932762 210.56916618 C-136.30465918 212.06126901 -137.81384875 213.55932022 -139.32165527 215.059021 C-140.16970482 215.89743404 -141.01775436 216.73584709 -141.89150238 217.5996666 C-143.90865875 219.42324064 -143.90865875 219.42324064 -143.6875 221.625 C-143.130625 221.88152344 -142.57375 222.13804687 -142 222.40234375 C-133.68445062 226.57416498 -128.29025058 232.60548365 -123.6875 240.625 C-120.05381026 239.09284138 -117.75616126 236.9287923 -114.99490356 234.13926697 C-114.5383614 233.68090582 -114.08181923 233.22254467 -113.61144245 232.75029379 C-112.08528525 231.21573387 -110.56641503 229.67415978 -109.04736328 228.13256836 C-107.95354261 227.02999668 -106.8592413 225.92790164 -105.76449585 224.82624817 C-103.40895797 222.45422639 -101.05641957 220.07928286 -98.70602798 217.70216179 C-94.98906961 213.94384189 -91.26288707 210.19476101 -87.53488159 206.44740295 C-76.93559 195.79052866 -66.34635163 185.12373471 -55.77197266 174.44213867 C-49.93090878 168.54201004 -44.08093782 162.65086444 -38.22104061 156.7694388 C-34.51274604 153.04649931 -30.81580695 149.31274731 -27.12681222 145.57068813 C-24.82915412 143.24529491 -22.5210926 140.93045133 -20.20993423 138.61848259 C-19.14051123 137.54449009 -18.0753883 136.46619593 -17.01494598 135.38333511 C-15.56597967 133.90498915 -14.10233759 132.44288455 -12.63406372 130.98374939 C-11.81886324 130.16134231 -11.00366276 129.33893522 -10.16375923 128.49160671 C-7.26604396 126.30730601 -5.28618808 125.81622506 -1.6875 125.625 C0.11328125 126.8828125 0.11328125 126.8828125 1.625 128.75 C6.20646773 133.79566931 11.55606092 137.39926922 18.375 138.5625 C30.59688436 138.75649816 38.65985888 131.2999749 47.8125 124.0625 C49.37575005 122.83523402 50.93956737 121.6086903 52.50390625 120.3828125 C53.2942627 119.7630957 54.08461914 119.14337891 54.89892578 118.50488281 C59.53750497 114.89198986 64.22579406 111.34344604 68.91796875 107.80053711 C69.583125 107.29530518 70.24828125 106.79007324 70.93359375 106.26953125 C71.80649048 105.60981323 71.80649048 105.60981323 72.69702148 104.93676758 C74.35121752 103.5935614 75.83322343 102.15695776 77.3125 100.625 C75.61568094 98.92818094 73.58066687 99.33155766 71.25 99.25 C59.48482666 99.36231669 48.6074349 103.51710861 39.3125 110.625 C32.61379806 115.6898722 27.61659433 118.69800269 19.0234375 118.1015625 C5.13295957 115.65972056 -9.53139587 97.40918213 -17.6875 86.625 C-20.68184741 81.31244815 -21.58589869 76.61084244 -20.6875 70.625 C-19.21329516 65.85840434 -16.27048459 62.00673796 -13.38867188 57.99072266 C-6.37762044 48.1952008 -0.33259635 35.89782051 -2.0625 23.4375 C-2.26875 22.509375 -2.475 21.58125 -2.6875 20.625 C-3.3475 20.625 -4.0075 20.625 -4.6875 20.625 Z M-172.3515625 237.26953125 C-176.38683173 242.4965028 -177.95743324 247.97427765 -177.625 254.5625 C-176.78818973 261.03055114 -173.92671046 265.50062084 -169.25 269.9375 C-168.404375 270.494375 -167.55875 271.05125 -166.6875 271.625 C-165.388125 272.49125 -165.388125 272.49125 -164.0625 273.375 C-157.97952338 275.6279543 -151.44718974 275.75570076 -145.4375 273.125 C-139.82066399 269.85429097 -135.81068363 265.15216318 -133.1875 259.25 C-132.21957958 252.23257697 -132.75000325 245.67187002 -136.6875 239.625 C-141.40612542 234.422413 -145.10476584 231.13744631 -152.1328125 230.3515625 C-159.99297041 230.05365564 -166.60375397 231.58918526 -172.3515625 237.26953125 Z " fill="#000000" transform="translate(253.6875,95.375)"/>
<path d="M0 0 C4.96196996 4.61929247 4.96196996 4.61929247 5.26953125 9.64453125 C5.1903805 16.12710776 3.74864876 22.32323084 2.3515625 28.62890625 C2.10728516 29.83417969 1.86300781 31.03945312 1.61132812 32.28125 C1.35673828 33.44269531 1.10214844 34.60414063 0.83984375 35.80078125 C0.50206909 37.37230957 0.50206909 37.37230957 0.1574707 38.97558594 C-2.04598973 44.69563647 -6.67030868 47.5545652 -11.77734375 50.578125 C-12.87111328 51.22974609 -13.96488281 51.88136719 -15.09179688 52.55273438 C-16.22423828 53.21724609 -17.35667969 53.88175781 -18.5234375 54.56640625 C-19.67161166 55.24869695 -20.81940165 55.93163457 -21.96679688 56.61523438 C-35.60466641 64.70140481 -35.60466641 64.70140481 -40.9609375 63.87890625 C-43.25140058 62.03061751 -45.06938225 60.34212771 -47.0234375 58.19140625 C-47.52681641 57.66095703 -48.03019531 57.13050781 -48.54882812 56.58398438 C-49.54708927 55.53148394 -50.54004492 54.47392324 -51.52734375 53.41113281 C-55.44265184 49.19273725 -55.44265184 49.19273725 -59.8359375 45.50390625 C-60.9609375 43.87890625 -60.9609375 43.87890625 -60.76318359 40.70996094 C-59.90403116 36.60715509 -58.39517376 33.49227181 -56.25 29.95703125 C-55.8811972 29.3303656 -55.51239441 28.70369995 -55.13241577 28.05804443 C-54.35608255 26.74396594 -53.57422042 25.43313952 -52.78710938 24.12548828 C-51.58500351 22.12735378 -50.40061872 20.11953262 -49.21875 18.109375 C-48.45934414 16.8288271 -47.69896083 15.54885825 -46.9375 14.26953125 C-46.58426666 13.67263489 -46.23103333 13.07573853 -45.86709595 12.46075439 C-41.61156078 5.41513604 -41.61156078 5.41513604 -36.88574219 3.87988281 C-35.02804199 3.45400879 -35.02804199 3.45400879 -33.1328125 3.01953125 C-32.46558167 2.8660321 -31.79835083 2.71253296 -31.11090088 2.55438232 C-29.7000078 2.23308658 -28.28782868 1.91739361 -26.87451172 1.60693359 C-24.72842808 1.13277068 -22.58909846 0.63413884 -20.44921875 0.1328125 C-19.07325393 -0.17728158 -17.69696057 -0.48592214 -16.3203125 -0.79296875 C-15.07733398 -1.07237305 -13.83435547 -1.35177734 -12.55371094 -1.63964844 C-8.12826028 -2.23267567 -3.95795967 -2.26281758 0 0 Z M-36.36669922 17.30859375 C-44.58018177 27.78524937 -44.58018177 27.78524937 -47.71606445 40.05712891 C-46.57564986 42.8084298 -44.78078184 44.57015849 -42.7109375 46.69140625 C-41.94265625 47.50222656 -41.174375 48.31304687 -40.3828125 49.1484375 C-38.13459237 51.16083072 -38.13459237 51.16083072 -35.6184082 50.62426758 C-27.3253608 48.29825254 -15.79830352 43.13736277 -10.62792969 36.05224609 C-8.66584658 31.84476662 -8.30586748 27.45277235 -7.9609375 22.87890625 C-7.55501008 20.39795857 -7.13906458 17.91861954 -6.7109375 15.44140625 C-6.45227864 13.58842767 -6.19877596 11.7346721 -5.9609375 9.87890625 C-16.06127377 9.59273006 -28.85728136 9.72449323 -36.36669922 17.30859375 Z " fill="#000000" transform="translate(313.9609375,129.12109375)"/>
<path d="M0 0 C2.54865815 0.58850834 5.02090407 1.36051986 7.5234375 2.12109375 C15.62856601 4.37681846 21.96857235 2.78791044 29.7890625 0.1171875 C33.09697616 -0.75360434 35.94840171 -1.14392534 39.0234375 0.49609375 C40.87567696 3.78896389 39.95926997 6.97851171 39.1484375 10.49609375 C38.6180507 12.1455967 38.07596033 13.7913731 37.5234375 15.43359375 C35.35541686 22.39464041 36.55484407 27.82151575 38.7734375 34.62109375 C40.21046531 39.06407827 40.2290203 41.97729296 39.1484375 46.49609375 C36.77139595 47.9175646 34.9982318 48.66618228 32.22851562 48.11181641 C29.94234226 47.37022711 27.67114649 46.59042585 25.3984375 45.80859375 C17.21645611 43.26215266 11.61925026 43.49942989 3.66894531 46.63989258 C-1.34972251 48.62052257 -1.34972251 48.62052257 -4.703125 47.7890625 C-6.8515625 46.49609375 -6.8515625 46.49609375 -8.8515625 44.49609375 C-8.6796875 42.32421875 -8.6796875 42.32421875 -8.1015625 39.74609375 C-7.90304688 38.84503906 -7.70453125 37.94398438 -7.5 37.015625 C-6.8515625 34.49609375 -6.8515625 34.49609375 -5.7265625 31.43359375 C-3.3775771 23.54771419 -5.35409593 17.09509146 -8.07421875 9.51171875 C-8.90154013 6.3022107 -8.97404221 4.59782512 -7.8515625 1.49609375 C-4.5840338 -0.68225871 -3.7048165 -0.63310155 0 0 Z M6.1484375 13.49609375 C6.23222656 14.35332031 6.31601563 15.21054688 6.40234375 16.09375 C6.93687726 22.09541111 7.38662509 27.58030862 6.1484375 33.49609375 C7.30859375 33.37041016 7.30859375 33.37041016 8.4921875 33.2421875 C14.61245314 32.64379519 20.0855508 32.44674797 26.1484375 33.49609375 C25.9834375 32.85671875 25.8184375 32.21734375 25.6484375 31.55859375 C24.71883017 25.86474884 24.70054247 20.10668699 26.1484375 14.49609375 C23.60134018 13.22254509 22.84148474 13.78250954 20.1484375 14.49609375 C18.67141364 14.58593062 17.19068202 14.62622285 15.7109375 14.62109375 C14.59912109 14.62496094 14.59912109 14.62496094 13.46484375 14.62890625 C10.95200664 14.48483127 8.60286119 14.04152124 6.1484375 13.49609375 Z " fill="#000000" transform="translate(148.8515625,138.50390625)"/>
<path d="M0 0 C3.21442175 0.70453079 6.30157669 1.7035273 9.44140625 2.6875 C19.83366117 5.71030026 27.1367525 3.62878913 37.26953125 0.3046875 C40.80735276 -0.49174151 43.08990681 -0.41462262 46.56640625 0.5625 C48.66051279 4.75071308 47.79958188 9.27670156 46.40234375 13.578125 C45.91706244 14.99016798 45.43003148 16.40161067 44.94140625 17.8125 C42.64119685 25.02558888 42.15157357 30.23750752 44.56640625 37.5625 C45.10913975 39.31216943 45.65082303 41.06216501 46.19140625 42.8125 C46.4440625 43.62203125 46.69671875 44.4315625 46.95703125 45.265625 C47.83763942 48.5848404 47.99305486 51.14931114 47.56640625 54.5625 C44.21731986 56.79522426 42.98513915 56.69256194 39.1328125 56.125 C35.91839075 55.42046921 32.83123581 54.4214727 29.69140625 53.4375 C19.37886315 50.43469786 12.57139018 52.49881281 2.5703125 55.76953125 C-1.28849642 56.78817652 -3.6418814 56.68277865 -7.43359375 55.5625 C-8.43359375 54.5625 -8.43359375 54.5625 -8.66796875 51 C-8.62375309 47.17704629 -7.78101385 44.18095039 -6.45166016 40.62573242 C-2.68328815 30.50287424 -3.95104143 23.54818574 -7.43359375 13.5625 C-8.62968461 9.42048166 -8.71168361 5.87289282 -8.43359375 1.5625 C-5.08450736 -0.67022426 -3.85232665 -0.56756194 0 0 Z M5.56640625 13.5625 C5.71078125 14.820625 5.85515625 16.07875 6.00390625 17.375 C6.12572266 18.43654297 6.12572266 18.43654297 6.25 19.51953125 C6.5381136 21.75646393 6.5381136 21.75646393 7.56640625 24.5625 C7.86185855 29.68367325 7.04065375 33.67905515 5.56640625 38.5625 C5.56640625 39.8825 5.56640625 41.2025 5.56640625 42.5625 C6.74396484 42.22025391 6.74396484 42.22025391 7.9453125 41.87109375 C13.87448449 40.24875589 18.47238184 39.0677393 24.56640625 40.5625 C26.21192108 40.91814353 27.85776742 41.27225597 29.50390625 41.625 C30.85868024 41.93485649 32.21307187 42.2464151 33.56640625 42.5625 C33.42203125 41.304375 33.27765625 40.04625 33.12890625 38.75 C33.04769531 38.04230469 32.96648437 37.33460938 32.8828125 36.60546875 C32.5946989 34.36853607 32.5946989 34.36853607 31.56640625 31.5625 C31.20470352 25.65468872 32.27616705 20.28793644 33.56640625 14.5625 C32.21207946 14.70683868 30.857954 14.85306661 29.50390625 15 C28.67375 15.08636719 27.84359375 15.17273438 26.98828125 15.26171875 C24.40137002 15.54244457 24.40137002 15.54244457 21.25390625 16.3125 C15.74219756 16.68617517 10.83057469 15.09247999 5.56640625 13.5625 Z " fill="#000000" transform="translate(273.43359375,262.4375)"/>
</svg>
