<?xml version="1.0" encoding="UTF-8"?>
<svg version="1.1" xmlns="http://www.w3.org/2000/svg" width="768" height="833">
<path d="M0 0 C0.65575956 -0.00482328 1.31151913 -0.00964657 1.98715019 -0.01461601 C6.88856355 -0.04985372 11.78987863 -0.06644156 16.69140625 -0.07421875 C17.77253063 -0.07638649 17.77253063 -0.07638649 18.87549591 -0.07859802 C41.22498478 -0.11465569 63.1762751 0.44134242 85.25390625 4.23828125 C86.24664551 4.39844727 87.23938477 4.55861328 88.26220703 4.72363281 C100.89787612 6.79332509 113.10532062 10.22788298 125.25390625 14.23828125 C126.97480469 14.80482422 126.97480469 14.80482422 128.73046875 15.3828125 C144.98516185 21.20569623 160.4922197 30.38533209 174.56640625 40.30078125 C175.44776245 40.91856445 175.44776245 40.91856445 176.34692383 41.54882812 C179.99612453 44.16561022 183.13775701 46.98363649 186.25390625 50.23828125 C186.8159375 50.77710938 187.37796875 51.3159375 187.95703125 51.87109375 C195.94520817 59.57686038 203.67183708 68.6177376 209.25390625 78.23828125 C209.25390625 79.22828125 209.25390625 80.21828125 209.25390625 81.23828125 C209.91390625 81.23828125 210.57390625 81.23828125 211.25390625 81.23828125 C223.77913153 106.34439947 231.44259777 131.21917097 231.43920898 159.44775391 C231.4413872 161.47059455 231.4595816 163.49288084 231.47851562 165.515625 C231.49091886 173.95809405 230.78076358 181.94023881 229.25390625 190.23828125 C229.05410156 191.49640625 228.85429687 192.75453125 228.6484375 194.05078125 C223.53686032 222.04438514 210.60165111 248.53328945 192.25390625 270.23828125 C191.04065918 271.83873484 189.83222669 273.44285088 188.62890625 275.05078125 C186.62520353 277.64648705 184.68828303 279.87566822 182.12890625 281.92578125 C179.60135317 283.95881308 177.86827554 285.98006774 175.8671875 288.49609375 C172.11710852 292.54581585 167.5747078 295.82385474 163.25390625 299.23828125 C162.35671875 299.98851562 161.45953125 300.73875 160.53515625 301.51171875 C158.25390625 303.23828125 158.25390625 303.23828125 156.25390625 303.23828125 C156.25390625 303.89828125 156.25390625 304.55828125 156.25390625 305.23828125 C154.3046875 306.68359375 154.3046875 306.68359375 151.56640625 308.36328125 C150.55320312 308.98589844 149.54 309.60851562 148.49609375 310.25 C147.42617188 310.90613281 146.35625 311.56226563 145.25390625 312.23828125 C144.26648438 312.88410156 143.2790625 313.52992188 142.26171875 314.1953125 C127.38607597 323.79066986 110.97248557 329.68210669 94.25390625 335.23828125 C95.33566304 338.30325881 96.53752587 340.65536892 98.37890625 343.36328125 C100.25390625 346.23828125 100.25390625 346.23828125 100.25390625 349.23828125 C100.91390625 349.23828125 101.57390625 349.23828125 102.25390625 349.23828125 C102.78177734 350.23794922 102.78177734 350.23794922 103.3203125 351.2578125 C106.58593587 357.35421122 110.0775629 363.18346691 113.93359375 368.92578125 C115.25390625 371.23828125 115.25390625 371.23828125 115.25390625 374.23828125 C115.91390625 374.23828125 116.57390625 374.23828125 117.25390625 374.23828125 C118.43240939 376.046111 119.52152031 377.91257273 120.56640625 379.80078125 C122.56471407 383.3330598 124.52946991 386.78492956 126.94140625 390.05078125 C128.89508792 392.74369383 130.51803953 395.45457704 132.1496582 398.3449707 C133.96733098 401.46149787 135.98476784 404.4373616 138.00390625 407.42578125 C138.43638672 408.07144043 138.86886719 408.71709961 139.31445312 409.38232422 C141.40199795 412.49754805 143.50141416 415.60434549 145.61328125 418.703125 C146.67289062 420.26740234 146.67289062 420.26740234 147.75390625 421.86328125 C148.38296875 422.78367187 149.01203125 423.7040625 149.66015625 424.65234375 C151.18493 427.12636391 152.26907325 429.51029384 153.25390625 432.23828125 C153.91390625 432.23828125 154.57390625 432.23828125 155.25390625 432.23828125 C156.54296875 433.91796875 156.54296875 433.91796875 157.87890625 436.11328125 C158.32492187 436.83257813 158.7709375 437.551875 159.23046875 438.29296875 C160.25390625 440.23828125 160.25390625 440.23828125 160.25390625 442.23828125 C160.91390625 442.23828125 161.57390625 442.23828125 162.25390625 442.23828125 C163.62890625 444.1875 163.62890625 444.1875 165.25390625 446.92578125 C168.01839956 451.40299598 170.95542302 455.60018262 174.19140625 459.73828125 C174.61276855 460.27839844 175.03413086 460.81851562 175.46826172 461.375 C176.31418257 462.45923125 177.16021036 463.54337906 178.00634766 464.62744141 C179.99978767 467.20135867 181.94470432 469.80690607 183.87890625 472.42578125 C184.53117187 473.30621094 185.1834375 474.18664062 185.85546875 475.09375 C187.25390625 477.23828125 187.25390625 477.23828125 187.25390625 479.23828125 C187.91390625 479.23828125 188.57390625 479.23828125 189.25390625 479.23828125 C190.9807281 481.28795659 192.5970334 483.33944396 194.19140625 485.48828125 C194.8555957 486.36806641 194.8555957 486.36806641 195.53320312 487.265625 C196.39327916 488.40641139 197.24938037 489.55020766 198.10107422 490.69726562 C199.06997754 491.99241974 200.06700961 493.26646356 201.0703125 494.53515625 C202.25390625 496.23828125 202.25390625 496.23828125 202.25390625 498.23828125 C202.91390625 498.23828125 203.57390625 498.23828125 204.25390625 498.23828125 C206.01617173 500.32890047 207.6750389 502.43066847 209.31640625 504.61328125 C213.42861092 509.97498702 217.68322791 515.09569919 222.28125 520.0546875 C228.25390625 526.66600402 228.25390625 526.66600402 228.25390625 529.23828125 C228.91390625 529.23828125 229.57390625 529.23828125 230.25390625 529.23828125 C231.6640625 530.63671875 231.6640625 530.63671875 233.31640625 532.61328125 C236.91284549 536.86086528 240.65182966 540.95603924 244.43359375 545.0390625 C246.25390625 547.23828125 246.25390625 547.23828125 247.25390625 550.23828125 C248.58235149 550.91463579 249.91694249 551.5789254 251.25390625 552.23828125 C253.16549459 553.88421906 255.0378353 555.576328 256.87890625 557.30078125 C260.29600378 560.65361772 260.29600378 560.65361772 264.25390625 563.23828125 C264.25390625 563.89828125 264.25390625 564.55828125 264.25390625 565.23828125 C265.90390625 565.89828125 267.55390625 566.55828125 269.25390625 567.23828125 C269.25390625 567.89828125 269.25390625 568.55828125 269.25390625 569.23828125 C269.94613281 569.48191406 270.63835937 569.72554687 271.3515625 569.9765625 C274.72773102 571.44426429 277.651773 573.37866383 280.69140625 575.42578125 C299.10869123 587.47821567 318.54898314 594.13757795 340.25390625 597.23828125 C339.92390625 606.80828125 339.59390625 616.37828125 339.25390625 626.23828125 C327.60396743 629.15076596 317.69099472 631.54783938 305.82421875 631.57421875 C304.75380341 631.58087555 303.68338806 631.58753235 302.58053589 631.59439087 C300.32323915 631.60446378 298.06591294 631.60920956 295.80859375 631.60888672 C292.42265183 631.6132252 289.03805284 631.64950822 285.65234375 631.6875 C267.69289534 631.78215456 251.19584776 629.44773993 234.19140625 623.55078125 C233.19971436 623.21409424 232.20802246 622.87740723 231.1862793 622.53051758 C217.03947576 617.58689437 203.6816161 611.24319311 191.50390625 602.48828125 C190.89208496 602.04871094 190.28026367 601.60914063 189.64990234 601.15625 C177.78510306 592.59537458 177.78510306 592.59537458 175.25390625 590.23828125 C175.25390625 589.57828125 175.25390625 588.91828125 175.25390625 588.23828125 C174.70734375 588.01785156 174.16078125 587.79742188 173.59765625 587.5703125 C170.50935602 585.81512854 168.21180333 583.44730237 165.75390625 580.92578125 C165.28082031 580.45205078 164.80773437 579.97832031 164.3203125 579.49023438 C156.25390625 571.32327735 156.25390625 571.32327735 156.25390625 568.23828125 C155.59390625 568.23828125 154.93390625 568.23828125 154.25390625 568.23828125 C152.9140625 566.76171875 152.9140625 566.76171875 151.31640625 564.61328125 C148.62322992 561.0467946 145.90435909 557.50787853 143.13378906 554.00146484 C140.83154046 551.08741355 138.54214799 548.16333656 136.25390625 545.23828125 C135.58101563 544.37847656 134.908125 543.51867187 134.21484375 542.6328125 C130.25390625 537.47983931 130.25390625 537.47983931 130.25390625 535.23828125 C129.59390625 535.23828125 128.93390625 535.23828125 128.25390625 535.23828125 C127.59390625 533.58828125 126.93390625 531.93828125 126.25390625 530.23828125 C125.59390625 530.23828125 124.93390625 530.23828125 124.25390625 530.23828125 C123.59390625 528.25828125 122.93390625 526.27828125 122.25390625 524.23828125 C121.59390625 524.23828125 120.93390625 524.23828125 120.25390625 524.23828125 C118.61960874 522.14378445 117.11223391 520.06046034 115.62890625 517.86328125 C115.20867187 517.26 114.7884375 516.65671875 114.35546875 516.03515625 C111.25390625 511.5036526 111.25390625 511.5036526 111.25390625 509.23828125 C110.59390625 509.23828125 109.93390625 509.23828125 109.25390625 509.23828125 C108.09765625 507.796875 108.09765625 507.796875 106.75390625 505.67578125 C105.96113281 504.44601562 105.96113281 504.44601562 105.15234375 503.19140625 C104.52585937 502.216875 103.899375 501.24234375 103.25390625 500.23828125 C101.63761537 497.79495322 100.0074931 495.36092404 98.37890625 492.92578125 C97.51945661 491.63416425 96.66008168 490.34249753 95.80078125 489.05078125 C94.15695834 486.58379588 92.50101135 484.12581115 90.83203125 481.67578125 C90.105 480.60328125 89.37796875 479.53078125 88.62890625 478.42578125 C87.97664063 477.47058594 87.324375 476.51539063 86.65234375 475.53125 C85.25390625 473.23828125 85.25390625 473.23828125 85.25390625 471.23828125 C84.59390625 471.23828125 83.93390625 471.23828125 83.25390625 471.23828125 C81.984375 469.31640625 81.984375 469.31640625 80.44140625 466.48828125 C76.59034155 459.67610378 72.3549447 453.15473052 68.04956055 446.62207031 C64.77524745 441.63745798 61.62995339 436.59789233 58.58276367 431.47119141 C56.98632873 428.7886645 55.34170558 426.13794978 53.69140625 423.48828125 C46.73585483 412.21044644 40.07362053 400.7535449 33.37109375 389.32421875 C32.92685059 388.5672168 32.48260742 387.81021484 32.02490234 387.03027344 C31.21157192 385.64358099 30.39929594 384.25626921 29.58837891 382.86816406 C27.227753 378.84115321 24.76871745 374.90465356 22.18945312 371.01318359 C21.25390625 369.23828125 21.25390625 369.23828125 21.25390625 366.23828125 C20.59390625 366.23828125 19.93390625 366.23828125 19.25390625 366.23828125 C18.71765625 365.14515625 18.18140625 364.05203125 17.62890625 362.92578125 C15.86370914 359.38867976 14.00421748 355.9124797 12.10546875 352.4453125 C11.57002441 351.46667236 11.03458008 350.48803223 10.48291016 349.47973633 C9.87455322 348.37021606 9.87455322 348.37021606 9.25390625 347.23828125 C8.11888672 347.21846191 6.98386719 347.19864258 5.81445312 347.17822266 C1.42286199 347.09958873 -2.96850171 347.01138081 -7.35986328 346.92089844 C-9.22667822 346.88363162 -11.0935407 346.84864644 -12.96044922 346.81640625 C-25.50881758 346.59757912 -38.0074532 346.02263111 -50.52929688 345.21240234 C-52.01384389 345.11776102 -53.49840195 345.02329284 -54.98297119 344.92900085 C-58.57080787 344.7007502 -62.15849082 344.47018031 -65.74609375 344.23828125 C-65.70872193 367.74541429 -65.64856378 391.25239698 -65.56219101 414.75940323 C-65.52259136 425.67716935 -65.49010294 436.59486538 -65.47509766 447.51269531 C-65.46198125 457.04245779 -65.43476655 466.57206481 -65.39148068 476.10173965 C-65.36908751 481.13513502 -65.3531695 486.16834027 -65.3542099 491.20178986 C-66.6999268 532.76299088 -66.6999268 532.76299088 -53.74609375 571.23828125 C-53.74609375 571.89828125 -53.74609375 572.55828125 -53.74609375 573.23828125 C-52.75609375 573.56828125 -51.76609375 573.89828125 -50.74609375 574.23828125 C-50.74609375 574.89828125 -50.74609375 575.55828125 -50.74609375 576.23828125 C-49.86824219 576.67720703 -49.86824219 576.67720703 -48.97265625 577.125 C-47.65075498 577.78595063 -46.33179539 578.45292904 -45.01953125 579.1328125 C-29.56878183 586.60385389 -12.4434811 588.54196081 4.37890625 590.55078125 C6.51317484 590.81582008 8.64729102 591.0820892 10.78125 591.34960938 C15.93703167 591.99558202 21.09494095 592.61638444 26.25390625 593.23828125 C26.25390625 603.46828125 26.25390625 613.69828125 26.25390625 624.23828125 C23.13953125 624.25890625 20.02515625 624.27953125 16.81640625 624.30078125 C15.87482666 624.30988525 14.93324707 624.31898926 13.96313477 624.32836914 C8.46286848 624.34532333 3.00307417 624.12649166 -2.484375 623.76953125 C-13.47982071 623.06856393 -24.48183583 622.87137631 -35.49609375 622.67578125 C-36.63793121 622.65493469 -37.77976868 622.63408813 -38.95620728 622.61260986 C-80.48052404 621.87569155 -122.03547691 621.87003621 -163.55859375 622.67578125 C-165.1097438 622.70511749 -165.1097438 622.70511749 -166.69223022 622.73504639 C-177.24027032 622.94224022 -187.74294557 623.31112171 -198.26831055 624.03100586 C-203.09928084 624.31893101 -207.90860328 624.34979815 -212.74609375 624.30078125 C-215.71609375 624.28015625 -218.68609375 624.25953125 -221.74609375 624.23828125 C-221.74609375 614.00828125 -221.74609375 603.77828125 -221.74609375 593.23828125 C-217.01265625 592.34109375 -217.01265625 592.34109375 -212.18359375 591.42578125 C-209.27852305 590.87191983 -206.37382086 590.31618037 -203.46923828 589.75976562 C-201.79851839 589.43982142 -200.12765314 589.12063377 -198.45654297 588.80273438 C-175.47244104 584.99174247 -175.47244104 584.99174247 -157.26953125 571.60546875 C-150.65831816 561.33266071 -148.41994992 551.09978001 -146.74609375 539.23828125 C-146.57632707 538.28245988 -146.4065604 537.3266385 -146.23164928 536.34185284 C-145.43550436 531.25305742 -145.3643303 526.14973835 -145.19168091 521.00752258 C-145.14955353 519.77686138 -145.10742615 518.54620019 -145.06402218 517.27824622 C-144.60692804 502.62803585 -144.60325077 487.97772985 -144.61536908 473.32191741 C-144.61767579 469.17460661 -144.61411745 465.02729961 -144.61138916 460.87998962 C-144.60698361 452.78671638 -144.60788567 444.6934525 -144.6108018 436.60017892 C-144.61308203 429.9904995 -144.61335714 423.38082266 -144.61227798 416.77114296 C-144.61204814 415.3470532 -144.61204814 415.3470532 -144.61181364 413.89419395 C-144.61149382 411.96364798 -144.6111696 410.033102 -144.61084105 408.10255603 C-144.60800006 390.06061282 -144.61124868 372.01867472 -144.61664142 353.97673235 C-144.62108278 338.64749021 -144.62035301 323.31825567 -144.61572266 307.98901367 C-144.61030794 290.0555483 -144.60830097 272.12208742 -144.61133492 254.18862134 C-144.61165334 252.25540467 -144.61196771 250.322188 -144.61227798 248.38897133 C-144.61243226 247.43865726 -144.61258654 246.48834318 -144.61274549 245.50923171 C-144.61359216 238.96016015 -144.61216098 232.4110916 -144.60979843 225.86202049 C-144.60253157 203.09753991 -144.62896479 180.3335147 -144.7353977 157.56925768 C-144.74609299 155.23844768 -144.75590709 152.90763518 -144.76560688 150.57682085 C-144.80393184 141.73608663 -144.86670604 132.89602239 -144.96357751 124.05573142 C-144.99199941 121.41583488 -145.01074825 118.77644188 -145.02440047 116.13636625 C-145.0756689 88.96800498 -145.0756689 88.96800498 -152.82649529 63.20944864 C-154.03294184 60.62341986 -154.90777325 57.96282286 -155.74609375 55.23828125 C-156.40609375 55.23828125 -157.06609375 55.23828125 -157.74609375 55.23828125 C-158.52984375 54.18640625 -159.31359375 53.13453125 -160.12109375 52.05078125 C-169.92144641 40.33758867 -192.79748041 38.67575395 -207.18359375 35.98828125 C-211.98921875 35.08078125 -216.79484375 34.17328125 -221.74609375 33.23828125 C-221.74609375 23.00828125 -221.74609375 12.77828125 -221.74609375 2.23828125 C-218.28302734 2.24351807 -214.81996094 2.24875488 -211.25195312 2.25415039 C-199.54957143 2.27104435 -187.84718872 2.28194329 -176.14479828 2.29009342 C-169.07959854 2.29514958 -162.01441084 2.30200626 -154.94921875 2.3137207 C-125.72129803 2.36111346 -96.5018857 2.3206833 -67.27734375 1.796875 C-66.15974167 1.77734331 -65.04213959 1.75781162 -63.89067078 1.73768806 C-50.85898457 1.50342478 -37.84139266 1.11035206 -24.81828213 0.58430862 C-16.5438747 0.25471581 -8.28142596 0.05229495 0 0 Z M-65.74609375 48.23828125 C-65.74609375 130.40828125 -65.74609375 212.57828125 -65.74609375 297.23828125 C-36.86882103 299.03039224 -36.86882103 299.03039224 -7.99609375 299.61328125 C-6.9594458 299.61306976 -5.92279785 299.61285828 -4.85473633 299.61264038 C18.01933338 299.56650567 40.56020089 298.08737507 62.25390625 290.23828125 C62.88361328 290.01414551 63.51332031 289.79000977 64.16210938 289.55908203 C74.01545778 286.00816782 83.12833541 281.33824566 92.25390625 276.23828125 C92.25390625 275.57828125 92.25390625 274.91828125 92.25390625 274.23828125 C92.94226563 274.0165625 93.630625 273.79484375 94.33984375 273.56640625 C113.82943608 264.68375023 128.11985402 239.98781333 136.171875 221.15234375 C138.5976731 214.61932792 140.52195726 207.98537874 142.25390625 201.23828125 C142.73923828 199.40136719 142.73923828 199.40136719 143.234375 197.52734375 C147.85710713 176.47546502 147.11139556 151.90162077 141.25390625 131.23828125 C140.82078125 129.60052734 140.82078125 129.60052734 140.37890625 127.9296875 C135.30378943 110.86913856 125.49895798 94.98600341 113.25390625 82.23828125 C112.06087891 80.95050781 112.06087891 80.95050781 110.84375 79.63671875 C105.29957672 73.82016928 99.47697856 68.86784504 92.25390625 65.23828125 C91.26390625 65.23828125 90.27390625 65.23828125 89.25390625 65.23828125 C89.25390625 64.57828125 89.25390625 63.91828125 89.25390625 63.23828125 C39.83556305 40.23319045 -12.09043233 46.32200763 -65.74609375 48.23828125 Z " fill="#00D0B0" transform="translate(221.74609375,201.76171875)"/>
<path d="M0 0 C2.9579077 0.00848998 5.91386479 -0.02030686 8.87158203 -0.05200195 C20.72365077 -0.09643629 31.36789837 1.04789543 42.72705078 4.44604492 C43.66339355 4.72311279 44.59973633 5.00018066 45.56445312 5.28564453 C47.83617453 6.00562736 50.06143337 6.7890764 52.28955078 7.63354492 C53.46650513 8.07682129 53.46650513 8.07682129 54.66723633 8.52905273 C70.94085397 14.88149527 85.79426399 24.63532036 97.72705078 37.44604492 C97.72705078 38.10604492 97.72705078 38.76604492 97.72705078 39.44604492 C98.38705078 39.44604492 99.04705078 39.44604492 99.72705078 39.44604492 C105.29482171 45.54517988 109.52539562 52.47575962 113.22705078 59.82104492 C113.73389404 60.8187793 113.73389404 60.8187793 114.25097656 61.83666992 C116.12396461 65.69299261 117.25214976 69.1851274 117.72705078 73.44604492 C107.33634364 78.13618994 96.82856053 82.42954044 86.18383789 86.51220703 C85.23001221 86.87967041 84.27618652 87.24713379 83.29345703 87.62573242 C82.43695557 87.95299316 81.5804541 88.28025391 80.69799805 88.61743164 C78.76174055 89.28542198 78.76174055 89.28542198 77.72705078 90.44604492 C75.72746714 90.48685275 73.72659824 90.48858848 71.72705078 90.44604492 C71.39705078 88.79604492 71.06705078 87.14604492 70.72705078 85.44604492 C70.06705078 85.44604492 69.40705078 85.44604492 68.72705078 85.44604492 C67.07080078 83.18041992 67.07080078 83.18041992 65.22705078 80.19604492 C64.61861328 79.22151367 64.01017578 78.24698242 63.38330078 77.24291992 C62.0599123 75.00814126 60.84268663 72.7888802 59.72705078 70.44604492 C59.06705078 70.44604492 58.40705078 70.44604492 57.72705078 70.44604492 C56.35205078 68.97729492 56.35205078 68.97729492 54.72705078 66.94604492 C50.15940183 61.56274437 44.534877 55.71532033 37.72705078 53.44604492 C37.72705078 52.78604492 37.72705078 52.12604492 37.72705078 51.44604492 C37.06705078 51.34291992 36.40705078 51.23979492 35.72705078 51.13354492 C32.72705078 50.44604492 32.72705078 50.44604492 29.35205078 49.00854492 C12.7047617 42.61297624 -6.27768823 44.38035669 -22.56982422 50.73120117 C-34.03442619 56.0625381 -45.50385618 64.90785884 -51.27294922 76.44604492 C-51.93294922 76.44604492 -52.59294922 76.44604492 -53.27294922 76.44604492 C-53.64419922 77.68354492 -53.64419922 77.68354492 -54.02294922 78.94604492 C-54.96361442 81.57990748 -55.90377643 83.68881925 -57.21826172 86.11010742 C-68.90734733 109.30762914 -65.60950518 141.77762157 -65.53369141 167.14892578 C-65.52232838 170.98029632 -65.52906551 174.81138791 -65.54056931 178.64274883 C-67.06330627 222.85884783 -67.06330627 222.85884783 -54.44482422 264.16088867 C-53.27294922 266.44604492 -53.27294922 266.44604492 -53.27294922 269.44604492 C-52.61294922 269.44604492 -51.95294922 269.44604492 -51.27294922 269.44604492 C-50.75732422 270.27104492 -50.24169922 271.09604492 -49.71044922 271.94604492 C-41.67474634 284.58211302 -25.99279476 291.82204561 -11.90576172 295.27026367 C8.21559816 298.73861543 29.13202309 296.06921791 46.20361328 284.36401367 C47.72705078 283.44604492 47.72705078 283.44604492 49.72705078 283.44604492 C49.72705078 282.78604492 49.72705078 282.12604492 49.72705078 281.44604492 C50.55205078 280.84791992 51.37705078 280.24979492 52.22705078 279.63354492 C65.17274077 269.26472214 70.3417003 248.6176407 72.35205078 232.94604492 C72.47322266 232.09268555 72.59439453 231.23932617 72.71923828 230.36010742 C73.91051591 221.42552521 74.2931438 212.44246596 74.72705078 203.44604492 C73.91494644 203.44826553 73.1028421 203.45048615 72.26612854 203.45277405 C64.6287613 203.47277563 56.99140668 203.48801837 49.35402012 203.49785709 C45.4271642 203.50308523 41.50032984 203.51018162 37.57348633 203.52148438 C33.78690821 203.53231573 30.00035088 203.53832228 26.21375847 203.54092216 C24.76600759 203.54277597 23.3182579 203.54639573 21.87051582 203.55177498 C19.84947943 203.5589886 17.82842231 203.559453 15.80737305 203.55957031 C14.07862694 203.56290123 14.07862694 203.56290123 12.31495667 203.56629944 C9.72705078 203.44604492 9.72705078 203.44604492 8.72705078 202.44604492 C8.63426748 201.06444378 8.60958035 199.67816455 8.61352539 198.29345703 C8.61363869 196.9722007 8.61363869 196.9722007 8.61375427 195.62425232 C8.61891556 194.66696732 8.62407684 193.70968231 8.62939453 192.72338867 C8.63080948 191.74817764 8.63222443 190.77296661 8.63368225 189.76820374 C8.63929945 186.63995349 8.65185485 183.51177369 8.66455078 180.38354492 C8.66956357 178.26831158 8.67412686 176.15307712 8.67822266 174.0378418 C8.68927447 168.84055117 8.70642568 163.64330531 8.72705078 158.44604492 C21.05967969 157.69701771 33.33366565 157.294796 45.68798828 157.31323242 C47.33688369 157.312555 48.985779 157.31158139 50.63467407 157.31033325 C54.05805429 157.30887597 57.48140806 157.31094572 60.90478516 157.31567383 C65.2265571 157.32136157 69.54826728 157.31800122 73.87003708 157.31222153 C91.17854644 157.29270625 108.44752798 157.30137757 125.72705078 158.44604492 C125.82087772 167.94065011 125.89137434 177.43508907 125.93429947 186.93006134 C125.95493008 191.34180902 125.9827814 195.75323331 126.02880859 200.16479492 C126.37620125 234.3970905 123.38453096 264.85685406 106.72705078 295.44604492 C106.06705078 295.44604492 105.40705078 295.44604492 104.72705078 295.44604492 C104.46666016 296.17694336 104.20626953 296.9078418 103.93798828 297.66088867 C102.69886155 300.51088015 101.28314771 302.58413284 99.35205078 305.00854492 C98.76681641 305.75233398 98.18158203 306.49612305 97.57861328 307.26245117 C95.71891491 309.45563975 93.85728489 311.51305472 91.72705078 313.44604492 C91.06705078 313.44604492 90.40705078 313.44604492 89.72705078 313.44604492 C89.39705078 314.43604492 89.06705078 315.42604492 88.72705078 316.44604492 C86.55579854 318.28714785 84.40503063 319.972426 82.10205078 321.63354492 C81.43052979 322.11968262 80.75900879 322.60582031 80.06713867 323.10668945 C60.52594393 336.95434967 35.81502698 345.99700142 11.72705078 346.44604492 C10.50115234 346.4847168 9.27525391 346.52338867 8.01220703 346.56323242 C-19.91359667 347.18935618 -49.50350167 340.14132582 -72.27294922 323.44604492 C-72.27294922 322.78604492 -72.27294922 322.12604492 -72.27294922 321.44604492 C-73.31322266 321.13666992 -73.31322266 321.13666992 -74.37451172 320.82104492 C-78.2111635 319.00096214 -80.70616461 316.46314955 -83.64794922 313.44604492 C-84.51166138 312.56601807 -84.51166138 312.56601807 -85.39282227 311.66821289 C-119.46770497 276.31738785 -119.83193151 223.97271254 -119.6640625 178.05322266 C-119.64695941 173.32839099 -119.6571471 168.60406595 -119.67438412 163.87925148 C-119.80852874 120.53553377 -118.69307114 72.37097136 -89.27294922 37.44604492 C-87.35440325 35.62681192 -85.36627682 34.07418861 -83.27294922 32.44604492 C-82.55107422 31.51791992 -81.82919922 30.58979492 -81.08544922 29.63354492 C-74.49019109 21.46298628 -64.55595927 16.83733404 -55.27294922 12.44604492 C-53.62664813 11.57192531 -51.98079339 10.69696439 -50.33544922 9.82104492 C-44.54796414 6.93654756 -38.51315765 5.09195659 -32.27294922 3.44604492 C-31.43747559 3.19234131 -30.60200195 2.9386377 -29.74121094 2.67724609 C-19.87378861 -0.0272479 -10.17227305 -0.04440211 0 0 Z " fill="#00D0B0" transform="translate(642.27294921875,-0.446044921875)"/>
</svg>
