<?xml version="1.0" encoding="UTF-8"?>
<svg version="1.1" xmlns="http://www.w3.org/2000/svg" width="3840" height="3840">
<path d="M0 0 C5.29824819 0.19623141 8.4212234 3.47081306 12.25 6.75 C13.68174059 7.94623192 15.11539554 9.14017565 16.55078125 10.33203125 C17.28635254 10.94385254 18.02192383 11.55567383 18.77978516 12.18603516 C22.26152819 15.03069655 25.84691176 17.73248472 29.4375 20.4375 C36.06754784 25.45345416 42.50857462 30.66220318 48.90161133 35.97583008 C54.09646276 40.28429907 59.39133215 44.42540964 64.76171875 48.51171875 C68.3654682 51.26413643 71.90240779 54.09774671 75.4375 56.9375 C80.29339122 60.83727676 85.16250276 64.71824631 90.0625 68.5625 C90.63750244 69.01375244 91.21250488 69.46500488 91.80493164 69.92993164 C94.6761367 72.18164366 97.55007211 74.42982535 100.42578125 76.67578125 C106.69073531 81.57538778 112.90247023 86.53142927 119.0625 91.5625 C123.84392621 95.4667889 128.65423148 99.31875117 133.5625 103.0625 C138.88426119 107.12280668 144.12278354 111.27552771 149.34179688 115.46679688 C153.56376321 118.85565166 157.80309842 122.22082052 162.0625 125.5625 C162.63750244 126.01375244 163.21250488 126.46500488 163.80493164 126.92993164 C166.6761367 129.18164366 169.55007211 131.42982535 172.42578125 133.67578125 C178.69073531 138.57538778 184.90247023 143.53142927 191.0625 148.5625 C195.84392621 152.4667889 200.65423148 156.31875117 205.5625 160.0625 C210.88426119 164.12280668 216.12278354 168.27552771 221.34179688 172.46679688 C225.56376321 175.85565166 229.80309842 179.22082052 234.0625 182.5625 C234.63750244 183.01375244 235.21250488 183.46500488 235.80493164 183.92993164 C238.6761367 186.18164366 241.55007211 188.42982535 244.42578125 190.67578125 C250.69073531 195.57538778 256.90247023 200.53142927 263.0625 205.5625 C267.84392621 209.4667889 272.65423148 213.31875117 277.5625 217.0625 C282.88426119 221.12280668 288.12278354 225.27552771 293.34179688 229.46679688 C297.56376321 232.85565166 301.80309842 236.22082052 306.0625 239.5625 C306.63750244 240.01375244 307.21250488 240.46500488 307.80493164 240.92993164 C310.6761367 243.18164366 313.55007211 245.42982535 316.42578125 247.67578125 C322.69073531 252.57538778 328.90247023 257.53142927 335.0625 262.5625 C339.84392621 266.4667889 344.65423148 270.31875117 349.5625 274.0625 C354.88426119 278.12280668 360.12278354 282.27552771 365.34179688 286.46679688 C369.56376321 289.85565166 373.80309842 293.22082052 378.0625 296.5625 C378.63750244 297.01375244 379.21250488 297.46500488 379.80493164 297.92993164 C382.6761367 300.18164366 385.55007211 302.42982535 388.42578125 304.67578125 C394.69073531 309.57538778 400.90247023 314.53142927 407.0625 319.5625 C411.84392621 323.4667889 416.65423148 327.31875117 421.5625 331.0625 C426.88426119 335.12280668 432.12278354 339.27552771 437.34179688 343.46679688 C441.56376321 346.85565166 445.80309842 350.22082052 450.0625 353.5625 C450.63750244 354.01375244 451.21250488 354.46500488 451.80493164 354.92993164 C454.6761367 357.18164366 457.55007211 359.42982535 460.42578125 361.67578125 C466.69073531 366.57538778 472.90247023 371.53142927 479.0625 376.5625 C483.84392621 380.4667889 488.65423148 384.31875117 493.5625 388.0625 C498.88426119 392.12280668 504.12278354 396.27552771 509.34179688 400.46679688 C513.56376321 403.85565166 517.80309842 407.22082052 522.0625 410.5625 C522.63750244 411.01375244 523.21250488 411.46500488 523.80493164 411.92993164 C526.6761367 414.18164366 529.55007211 416.42982535 532.42578125 418.67578125 C538.69073531 423.57538778 544.90247023 428.53142927 551.0625 433.5625 C555.84392621 437.4667889 560.65423148 441.31875117 565.5625 445.0625 C570.88426119 449.12280668 576.12278354 453.27552771 581.34179688 457.46679688 C585.56376321 460.85565166 589.80309842 464.22082052 594.0625 467.5625 C594.63750244 468.01375244 595.21250488 468.46500488 595.80493164 468.92993164 C598.6761367 471.18164366 601.55007211 473.42982535 604.42578125 475.67578125 C610.69073531 480.57538778 616.90247023 485.53142927 623.0625 490.5625 C627.84392621 494.4667889 632.65423148 498.31875117 637.5625 502.0625 C642.88426119 506.12280668 648.12278354 510.27552771 653.34179688 514.46679688 C657.56376321 517.85565166 661.80309842 521.22082052 666.0625 524.5625 C666.63750244 525.01375244 667.21250488 525.46500488 667.80493164 525.92993164 C670.6761367 528.18164366 673.55007211 530.42982535 676.42578125 532.67578125 C682.69073531 537.57538778 688.90247023 542.53142927 695.0625 547.5625 C699.84392621 551.4667889 704.65423148 555.31875117 709.5625 559.0625 C714.88426119 563.12280668 720.12278354 567.27552771 725.34179688 571.46679688 C729.56376321 574.85565166 733.80309842 578.22082052 738.0625 581.5625 C738.63750244 582.01375244 739.21250488 582.46500488 739.80493164 582.92993164 C742.6761367 585.18164366 745.55007211 587.42982535 748.42578125 589.67578125 C754.69073531 594.57538778 760.90247023 599.53142927 767.0625 604.5625 C771.84392621 608.4667889 776.65423148 612.31875117 781.5625 616.0625 C786.88426119 620.12280668 792.12278354 624.27552771 797.34179688 628.46679688 C801.56376321 631.85565166 805.80309842 635.22082052 810.0625 638.5625 C810.63750244 639.01375244 811.21250488 639.46500488 811.80493164 639.92993164 C814.6761367 642.18164366 817.55007211 644.42982535 820.42578125 646.67578125 C826.69073531 651.57538778 832.90247023 656.53142927 839.0625 661.5625 C843.84392621 665.4667889 848.65423148 669.31875117 853.5625 673.0625 C858.88426119 677.12280668 864.12278354 681.27552771 869.34179688 685.46679688 C873.56376321 688.85565166 877.80309842 692.22082052 882.0625 695.5625 C882.63750244 696.01375244 883.21250488 696.46500488 883.80493164 696.92993164 C886.6761367 699.18164366 889.55007211 701.42982535 892.42578125 703.67578125 C898.69073531 708.57538778 904.90247023 713.53142927 911.0625 718.5625 C915.84392621 722.4667889 920.65423148 726.31875117 925.5625 730.0625 C930.88426119 734.12280668 936.12278354 738.27552771 941.34179688 742.46679688 C945.56376321 745.85565166 949.80309842 749.22082052 954.0625 752.5625 C954.63750244 753.01375244 955.21250488 753.46500488 955.80493164 753.92993164 C958.6761367 756.18164366 961.55007211 758.42982535 964.42578125 760.67578125 C970.69073531 765.57538778 976.90247023 770.53142927 983.0625 775.5625 C987.84392621 779.4667889 992.65423148 783.31875117 997.5625 787.0625 C1002.88426119 791.12280668 1008.12278354 795.27552771 1013.34179688 799.46679688 C1017.56376321 802.85565166 1021.80309842 806.22082052 1026.0625 809.5625 C1026.63750244 810.01375244 1027.21250488 810.46500488 1027.80493164 810.92993164 C1030.6761367 813.18164366 1033.55007211 815.42982535 1036.42578125 817.67578125 C1042.69073531 822.57538778 1048.90247023 827.53142927 1055.0625 832.5625 C1059.84392621 836.4667889 1064.65423148 840.31875117 1069.5625 844.0625 C1074.88426119 848.12280668 1080.12278354 852.27552771 1085.34179688 856.46679688 C1089.56376321 859.85565166 1093.80309842 863.22082052 1098.0625 866.5625 C1098.63750244 867.01375244 1099.21250488 867.46500488 1099.80493164 867.92993164 C1102.6761367 870.18164366 1105.55007211 872.42982535 1108.42578125 874.67578125 C1114.69073531 879.57538778 1120.90247023 884.53142927 1127.0625 889.5625 C1131.84392621 893.4667889 1136.65423148 897.31875117 1141.5625 901.0625 C1146.88426119 905.12280668 1152.12278354 909.27552771 1157.34179688 913.46679688 C1161.56376321 916.85565166 1165.80309842 920.22082052 1170.0625 923.5625 C1170.63750244 924.01375244 1171.21250488 924.46500488 1171.80493164 924.92993164 C1174.6761367 927.18164366 1177.55007211 929.42982535 1180.42578125 931.67578125 C1186.69073531 936.57538778 1192.90247023 941.53142927 1199.0625 946.5625 C1203.84392621 950.4667889 1208.65423148 954.31875117 1213.5625 958.0625 C1218.88426119 962.12280668 1224.12278354 966.27552771 1229.34179688 970.46679688 C1233.56376321 973.85565166 1237.80309842 977.22082052 1242.0625 980.5625 C1242.63750244 981.01375244 1243.21250488 981.46500488 1243.80493164 981.92993164 C1246.6761367 984.18164366 1249.55007211 986.42982535 1252.42578125 988.67578125 C1258.69073531 993.57538778 1264.90247023 998.53142927 1271.0625 1003.5625 C1275.84392621 1007.4667889 1280.65423148 1011.31875117 1285.5625 1015.0625 C1290.88426119 1019.12280668 1296.12278354 1023.27552771 1301.34179688 1027.46679688 C1305.56376321 1030.85565166 1309.80309842 1034.22082052 1314.0625 1037.5625 C1314.63750244 1038.01375244 1315.21250488 1038.46500488 1315.80493164 1038.92993164 C1318.6761367 1041.18164366 1321.55007211 1043.42982535 1324.42578125 1045.67578125 C1330.69073531 1050.57538778 1336.90247023 1055.53142927 1343.0625 1060.5625 C1347.84392621 1064.4667889 1352.65423148 1068.31875117 1357.5625 1072.0625 C1362.88426119 1076.12280668 1368.12278354 1080.27552771 1373.34179688 1084.46679688 C1377.56376321 1087.85565166 1381.80309842 1091.22082052 1386.0625 1094.5625 C1386.63750244 1095.01375244 1387.21250488 1095.46500488 1387.80493164 1095.92993164 C1390.6761367 1098.18164366 1393.55007211 1100.42982535 1396.42578125 1102.67578125 C1402.69073531 1107.57538778 1408.90247023 1112.53142927 1415.0625 1117.5625 C1419.84392621 1121.4667889 1424.65423148 1125.31875117 1429.5625 1129.0625 C1434.88426119 1133.12280668 1440.12278354 1137.27552771 1445.34179688 1141.46679688 C1449.56376321 1144.85565166 1453.80309842 1148.22082052 1458.0625 1151.5625 C1458.63750244 1152.01375244 1459.21250488 1152.46500488 1459.80493164 1152.92993164 C1462.6761367 1155.18164366 1465.55007211 1157.42982535 1468.42578125 1159.67578125 C1474.69073531 1164.57538778 1480.90247023 1169.53142927 1487.0625 1174.5625 C1491.84392621 1178.4667889 1496.65423148 1182.31875117 1501.5625 1186.0625 C1506.88426119 1190.12280668 1512.12278354 1194.27552771 1517.34179688 1198.46679688 C1521.56376321 1201.85565166 1525.80309842 1205.22082052 1530.0625 1208.5625 C1530.63750244 1209.01375244 1531.21250488 1209.46500488 1531.80493164 1209.92993164 C1534.6761367 1212.18164366 1537.55007211 1214.42982535 1540.42578125 1216.67578125 C1546.69073531 1221.57538778 1552.90247023 1226.53142927 1559.0625 1231.5625 C1563.84392621 1235.4667889 1568.65423148 1239.31875117 1573.5625 1243.0625 C1578.88426119 1247.12280668 1584.12278354 1251.27552771 1589.34179688 1255.46679688 C1593.56376321 1258.85565166 1597.80309842 1262.22082052 1602.0625 1265.5625 C1602.63750244 1266.01375244 1603.21250488 1266.46500488 1603.80493164 1266.92993164 C1606.6761367 1269.18164366 1609.55007211 1271.42982535 1612.42578125 1273.67578125 C1618.69073531 1278.57538778 1624.90247023 1283.53142927 1631.0625 1288.5625 C1635.84392621 1292.4667889 1640.65423148 1296.31875117 1645.5625 1300.0625 C1650.88426119 1304.12280668 1656.12278354 1308.27552771 1661.34179688 1312.46679688 C1665.56376321 1315.85565166 1669.80309842 1319.22082052 1674.0625 1322.5625 C1674.63750244 1323.01375244 1675.21250488 1323.46500488 1675.80493164 1323.92993164 C1678.6761367 1326.18164366 1681.55007211 1328.42982535 1684.42578125 1330.67578125 C1690.69073531 1335.57538778 1696.90247023 1340.53142927 1703.0625 1345.5625 C1707.84392621 1349.4667889 1712.65423148 1353.31875117 1717.5625 1357.0625 C1722.88426119 1361.12280668 1728.12278354 1365.27552771 1733.34179688 1369.46679688 C1737.56376321 1372.85565166 1741.80309842 1376.22082052 1746.0625 1379.5625 C1746.63750244 1380.01375244 1747.21250488 1380.46500488 1747.80493164 1380.92993164 C1750.6761367 1383.18164366 1753.55007211 1385.42982535 1756.42578125 1387.67578125 C1762.69073531 1392.57538778 1768.90247023 1397.53142927 1775.0625 1402.5625 C1779.84392621 1406.4667889 1784.65423148 1410.31875117 1789.5625 1414.0625 C1794.88426119 1418.12280668 1800.12278354 1422.27552771 1805.34179688 1426.46679688 C1809.56376321 1429.85565166 1813.80309842 1433.22082052 1818.0625 1436.5625 C1818.63750244 1437.01375244 1819.21250488 1437.46500488 1819.80493164 1437.92993164 C1822.6761367 1440.18164366 1825.55007211 1442.42982535 1828.42578125 1444.67578125 C1834.69073531 1449.57538778 1840.90247023 1454.53142927 1847.0625 1459.5625 C1851.84392621 1463.4667889 1856.65423148 1467.31875117 1861.5625 1471.0625 C1866.88426119 1475.12280668 1872.12278354 1479.27552771 1877.34179688 1483.46679688 C1881.56376287 1486.85565139 1885.80307611 1490.22084922 1890.0625 1493.5625 C1890.63387695 1494.01085205 1891.20525391 1494.4592041 1891.79394531 1494.92114258 C1894.12607718 1496.74991058 1896.45934423 1498.5772172 1898.79394531 1500.40283203 C1906.60618094 1506.51207626 1914.35518066 1512.68132279 1922 1519 C1920.62840255 1522.17404746 1919.15773943 1523.97625583 1916.47265625 1526.13671875 C1915.76874756 1526.70914307 1915.06483887 1527.28156738 1914.33959961 1527.87133789 C1913.2124353 1528.77033813 1913.2124353 1528.77033813 1912.0625 1529.6875 C1911.2897876 1530.31325928 1910.5170752 1530.93901855 1909.72094727 1531.58374023 C1908.17853347 1532.8323916 1906.63389896 1534.07830545 1905.08691406 1535.32128906 C1902.52252394 1537.38408112 1899.9790918 1539.47171042 1897.4375 1541.5625 C1889.6059625 1547.96259334 1881.74945614 1554.33207184 1873.89746094 1560.70703125 C1866.5567932 1566.6672561 1859.22061966 1572.63250438 1851.90625 1578.625 C1847.57954205 1582.16080435 1843.24026221 1585.68109065 1838.90234375 1589.203125 C1835.09554653 1592.29479333 1831.29352888 1595.39204863 1827.5 1598.5 C1819.65310335 1604.92765227 1811.77222638 1611.3135849 1803.89746094 1617.70703125 C1796.5567932 1623.6672561 1789.22061966 1629.63250438 1781.90625 1635.625 C1777.57954205 1639.16080435 1773.24026221 1642.68109065 1768.90234375 1646.203125 C1765.09554653 1649.29479333 1761.29352888 1652.39204863 1757.5 1655.5 C1749.65310335 1661.92765227 1741.77222638 1668.3135849 1733.89746094 1674.70703125 C1726.5567932 1680.6672561 1719.22061966 1686.63250438 1711.90625 1692.625 C1707.57954205 1696.16080435 1703.24026221 1699.68109065 1698.90234375 1703.203125 C1695.09554653 1706.29479333 1691.29352888 1709.39204863 1687.5 1712.5 C1679.65310335 1718.92765227 1671.77222638 1725.3135849 1663.89746094 1731.70703125 C1656.5567932 1737.6672561 1649.22061966 1743.63250438 1641.90625 1749.625 C1637.57954205 1753.16080435 1633.24026221 1756.68109065 1628.90234375 1760.203125 C1625.09554653 1763.29479333 1621.29352888 1766.39204863 1617.5 1769.5 C1609.65310335 1775.92765227 1601.77222638 1782.3135849 1593.89746094 1788.70703125 C1586.5567932 1794.6672561 1579.22061966 1800.63250438 1571.90625 1806.625 C1567.57954205 1810.16080435 1563.24026221 1813.68109065 1558.90234375 1817.203125 C1555.09554653 1820.29479333 1551.29352888 1823.39204863 1547.5 1826.5 C1539.65310335 1832.92765227 1531.77222638 1839.3135849 1523.89746094 1845.70703125 C1516.5567932 1851.6672561 1509.22061966 1857.63250438 1501.90625 1863.625 C1497.57954205 1867.16080435 1493.24026221 1870.68109065 1488.90234375 1874.203125 C1485.09554653 1877.29479333 1481.29352888 1880.39204863 1477.5 1883.5 C1469.65310335 1889.92765227 1461.77222638 1896.3135849 1453.89746094 1902.70703125 C1446.5567932 1908.6672561 1439.22061966 1914.63250438 1431.90625 1920.625 C1427.57954205 1924.16080435 1423.24026221 1927.68109065 1418.90234375 1931.203125 C1415.09554653 1934.29479333 1411.29352888 1937.39204863 1407.5 1940.5 C1399.65310335 1946.92765227 1391.77222638 1953.3135849 1383.89746094 1959.70703125 C1374.18736387 1967.58956541 1374.18736387 1967.58956541 1364.5 1975.5 C1356.65310335 1981.92765227 1348.77222638 1988.3135849 1340.89746094 1994.70703125 C1333.5567932 2000.6672561 1326.22061966 2006.63250438 1318.90625 2012.625 C1314.57954205 2016.16080435 1310.24026221 2019.68109065 1305.90234375 2023.203125 C1302.09554653 2026.29479333 1298.29352888 2029.39204863 1294.5 2032.5 C1286.65310335 2038.92765227 1278.77222638 2045.3135849 1270.89746094 2051.70703125 C1263.5567932 2057.6672561 1256.22061966 2063.63250438 1248.90625 2069.625 C1244.57954205 2073.16080435 1240.24026221 2076.68109065 1235.90234375 2080.203125 C1232.09554653 2083.29479333 1228.29352888 2086.39204863 1224.5 2089.5 C1216.65310335 2095.92765227 1208.77222638 2102.3135849 1200.89746094 2108.70703125 C1193.5567932 2114.6672561 1186.22061966 2120.63250438 1178.90625 2126.625 C1174.57954205 2130.16080435 1170.24026221 2133.68109065 1165.90234375 2137.203125 C1162.09554653 2140.29479333 1158.29352888 2143.39204863 1154.5 2146.5 C1146.65310335 2152.92765227 1138.77222638 2159.3135849 1130.89746094 2165.70703125 C1123.5567932 2171.6672561 1116.22061966 2177.63250438 1108.90625 2183.625 C1104.57954205 2187.16080435 1100.24026221 2190.68109065 1095.90234375 2194.203125 C1092.09554653 2197.29479333 1088.29352888 2200.39204863 1084.5 2203.5 C1076.65310335 2209.92765227 1068.77222638 2216.3135849 1060.89746094 2222.70703125 C1059.50969796 2223.83381967 1058.12200192 2224.96069052 1056.734375 2226.08764648 C1055.3751602 2227.19152215 1054.01578644 2228.29520213 1052.65625 2229.39868164 C1048.86233341 2232.47983302 1045.08324962 2235.57799778 1041.3125 2238.6875 C1035.31927694 2243.60267379 1029.16574485 2248.30462356 1023 2253 C1023.55998481 2257.23510406 1024.55100425 2260.63423857 1026.37890625 2264.48828125 C1026.87970703 2265.56529297 1027.38050781 2266.64230469 1027.89648438 2267.75195312 C1028.44626953 2268.92693359 1028.99605469 2270.10191406 1029.5625 2271.3125 C1055.07518401 2326.84947806 1073.97322454 2385.83981083 1089 2445 C1089.20131531 2445.79088013 1089.40263062 2446.58176025 1089.61004639 2447.39660645 C1109.9302307 2527.46723961 1122.0183771 2611.12025454 1122.203125 2693.828125 C1122.21010377 2695.77694724 1122.21714474 2697.72576926 1122.22424316 2699.67459106 C1122.24351701 2705.86639693 1122.2484186 2712.0581674 1122.25 2718.25 C1122.25058914 2719.3034687 1122.25117828 2720.35693741 1122.25178528 2721.44232941 C1122.2638156 2751.90012303 1122.07136277 2782.21132777 1119.22460938 2812.56072998 C1118.99646238 2815.03841877 1118.78486082 2817.51702014 1118.578125 2819.99658203 C1111.43199087 2905.33995438 1093.43217455 2989.60821804 1067 3071 C1066.75141235 3071.76638794 1066.50282471 3072.53277588 1066.2467041 3073.3223877 C1054.53655633 3109.32529836 1040.61835902 3144.52025184 1025 3179 C1024.484375 3180.14549316 1023.96875 3181.29098633 1023.4375 3182.47119141 C1010.71808099 3210.64778703 997.13168575 3238.55556772 981.56689453 3265.27636719 C979.88472295 3268.20037874 978.24865726 3271.14682315 976.62109375 3274.1015625 C969.12236085 3287.7093993 961.21150319 3300.97357106 952.86132812 3314.07568359 C951.00731423 3316.98850867 949.16627576 3319.90917495 947.328125 3322.83203125 C940.45913365 3333.73043363 933.40406395 3344.4584407 926 3355 C925.04807056 3356.36450903 924.09625004 3357.72909404 923.14453125 3359.09375 C911.52030703 3375.70945051 899.41073142 3391.96478912 887 3408 C886.53529297 3408.60118652 886.07058594 3409.20237305 885.59179688 3409.82177734 C872.03906434 3427.31845255 857.88274978 3444.38059539 843.01171875 3460.7734375 C841.15265331 3462.83104391 839.32071642 3464.90846763 837.5 3467 C823.02923678 3483.57560151 807.79268845 3499.37519459 792.21801758 3514.91235352 C789.53804719 3517.58690335 786.86354516 3520.26683976 784.18945312 3522.94726562 C782.46125848 3524.67480033 780.73275411 3526.40202526 779.00390625 3528.12890625 C778.21730118 3528.91753555 777.43069611 3529.70616486 776.62025452 3530.51869202 C772.47180093 3534.64975213 768.24885443 3538.62895781 763.80271912 3542.43882751 C760.61560909 3545.19889615 757.56773783 3548.10880822 754.5 3551 C749.41384369 3555.76667569 744.30079979 3560.47182601 739 3565 C738.01257812 3565.85464844 737.02515625 3566.70929687 736.0078125 3567.58984375 C726.79823919 3575.54757846 717.43501957 3583.31146277 708 3591 C707.37512695 3591.51030762 706.75025391 3592.02061523 706.10644531 3592.54638672 C696.07788531 3600.71850453 685.76849462 3608.49216765 675.39111328 3616.21435547 C673.21029151 3617.84295772 671.03840279 3619.48238649 668.87109375 3621.12890625 C629.17051191 3651.25996673 586.58555615 3677.90326814 543 3702 C541.55512207 3702.80074951 541.55512207 3702.80074951 540.08105469 3703.61767578 C489.12771297 3731.74694235 435.93931561 3755.92038314 381.03985596 3775.27990723 C378.91208829 3776.03103385 376.7858503 3776.78639067 374.65966797 3777.54199219 C284.40613679 3809.54071538 190.06295884 3829.36727925 28.171875 3840.203125 C26.22305276 3840.21010377 24.27423074 3840.21714474 22.32540894 3840.22424316 C16.13360307 3840.24351701 9.9418326 3840.2484186 3.75 3840.25 C2.6965313 3840.25058914 1.64306259 3840.25117828 0.55767059 3840.25178528 C-29.90012303 3840.2638156 -60.21132777 3840.07136277 -90.56072998 3837.22460938 C-93.03841877 3836.99646238 -95.51702014 3836.78486082 -97.99658203 3836.578125 C-186.92386403 3829.13158117 -274.56545623 3809.84870268 -448 3747 C-449.23876875 3746.45421849 -450.47770505 3745.90881716 -451.71679688 3745.36376953 C-483.05229646 3731.55776702 -514.09321426 3716.66885155 -543.65478516 3699.35839844 C-546.72610204 3697.57942622 -549.83368903 3695.87116411 -552.94628906 3694.16577148 C-599.74754993 3668.51684518 -643.83947811 3637.63087201 -686 3605 C-686.60118652 3604.53529297 -687.20237305 3604.07058594 -687.82177734 3603.59179688 C-701.98604325 3592.620312 -715.75092831 3581.16630308 -729.30712891 3569.45458984 C-731.0026829 3567.99769473 -732.70851026 3566.55382521 -734.41796875 3565.11328125 C-742.81342528 3558.02058847 -750.84850077 3550.59927086 -758.82055664 3543.03588867 C-760.331351 3541.6246067 -761.85778828 3540.22995695 -763.39624023 3538.84887695 C-773.23718371 3529.99616009 -782.54598338 3520.60657928 -791.89233398 3511.23803711 C-794.33387742 3508.79076523 -796.77992991 3506.34805696 -799.22731495 3503.90662861 C-801.59800018 3501.54045508 -803.96483723 3499.17044753 -806.33203125 3496.80078125 C-807.63222954 3495.50361931 -807.63222954 3495.50361931 -808.95869446 3494.18025208 C-813.28939005 3489.83294192 -817.48585961 3485.42947782 -821.47370911 3480.7644043 C-824.17233235 3477.64477457 -827.03793308 3474.68067728 -829.875 3471.6875 C-834.76849848 3466.48896569 -839.4111012 3461.18009647 -843.8671875 3455.59765625 C-846.11129275 3452.86445114 -848.46867753 3450.27863407 -850.875 3447.6875 C-855.11797039 3443.07728643 -858.99876663 3438.28073042 -862.82592773 3433.32836914 C-865.92509117 3429.32960629 -869.13342735 3425.45544805 -872.4375 3421.625 C-878.1572428 3414.96390418 -883.36102315 3407.95075466 -888.58300781 3400.89746094 C-890.66421724 3398.11056231 -892.80108505 3395.3698438 -894.9375 3392.625 C-910.48012107 3372.53156935 -925.08082507 3351.54179295 -938.67578125 3330.08789062 C-940.04812007 3327.92412927 -941.42990822 3325.76659697 -942.8125 3323.609375 C-955.88432999 3303.14340069 -968.25087752 3282.25151412 -980 3261 C-980.80074951 3259.55512207 -980.80074951 3259.55512207 -981.61767578 3258.08105469 C-999.04383448 3226.5153181 -1014.85689125 3194.16324251 -1029 3161 C-1029.32915405 3160.22996643 -1029.65830811 3159.45993286 -1029.99743652 3158.66656494 C-1041.03540423 3132.80834667 -1050.90341484 3106.60108897 -1060 3080 C-1060.25696655 3079.24972534 -1060.51393311 3078.49945068 -1060.77868652 3077.72644043 C-1082.89016632 3013.00929784 -1098.60023083 2945.72327572 -1108 2878 C-1108.10959045 2877.21353088 -1108.21918091 2876.42706177 -1108.33209229 2875.61676025 C-1111.88749008 2849.93989674 -1114.24472058 2824.19558795 -1116.203125 2798.3515625 C-1116.26956207 2797.48614838 -1116.33599915 2796.62073425 -1116.40444946 2795.72909546 C-1116.61898561 2792.8202307 -1116.81376066 2789.91082374 -1117 2787 C-1117.04238045 2786.33775421 -1117.08476089 2785.67550842 -1117.1284256 2784.99319458 C-1117.92316302 2772.2565742 -1118.17762802 2759.55625396 -1118.203125 2746.796875 C-1118.20595238 2745.81383644 -1118.20877975 2744.83079788 -1118.21169281 2743.81797028 C-1118.22657208 2738.5895818 -1118.23586584 2733.36121999 -1118.24023438 2728.1328125 C-1118.2445658 2723.92764353 -1118.25826404 2719.72268591 -1118.28125 2715.51757812 C-1118.77910093 2622.46433253 -1106.54955138 2530.20619403 -1063 2369 C-1062.75141235 2368.23361206 -1062.50282471 2367.46722412 -1062.2467041 2366.6776123 C-1050.85757064 2331.66166181 -1037.36988783 2297.42552724 -1022.25830078 2263.85449219 C-1019.80300121 2258.619729 -1019.80300121 2258.619729 -1019 2253 C-1021.02177107 2251.2055645 -1023.02142136 2249.60307908 -1025.1875 2248 C-1026.48472327 2247.01258107 -1027.78025951 2246.02294242 -1029.07421875 2245.03125 C-1030.06301025 2244.27521484 -1030.06301025 2244.27521484 -1031.07177734 2243.50390625 C-1033.9555671 2241.2547109 -1036.72879213 2238.88549555 -1039.5 2236.5 C-1043.9147046 2232.71692844 -1048.40921361 2229.06723357 -1053 2225.5 C-1057.59086105 2221.93270841 -1062.08408104 2218.28171783 -1066.5 2214.5 C-1070.837559 2210.78762154 -1075.24344624 2207.19281036 -1079.75 2203.6875 C-1087.3247587 2197.79471577 -1094.71434762 2191.68526195 -1102.10644531 2185.56591797 C-1109.73052726 2179.26101059 -1117.41749652 2173.0326576 -1125.09790039 2166.79663086 C-1128.90465036 2163.70508572 -1132.70655962 2160.60787887 -1136.5 2157.5 C-1143.64854276 2151.64439247 -1150.82606826 2145.82444621 -1158 2140 C-1166.04170892 2133.47101384 -1174.08106785 2126.93960706 -1182.09375 2120.375 C-1185.72305284 2117.40911811 -1189.36129332 2114.45433168 -1193 2111.5 C-1197.50644208 2107.84113827 -1202.00976104 2104.17874999 -1206.5 2100.5 C-1213.64854276 2094.64439247 -1220.82606826 2088.82444621 -1228 2083 C-1236.04170892 2076.47101384 -1244.08106785 2069.93960706 -1252.09375 2063.375 C-1255.72305284 2060.40911811 -1259.36129332 2057.45433168 -1263 2054.5 C-1267.50644208 2050.84113827 -1272.00976104 2047.17874999 -1276.5 2043.5 C-1283.64854276 2037.64439247 -1290.82606826 2031.82444621 -1298 2026 C-1306.04170892 2019.47101384 -1314.08106785 2012.93960706 -1322.09375 2006.375 C-1325.72305284 2003.40911811 -1329.36129332 2000.45433168 -1333 1997.5 C-1337.50644208 1993.84113827 -1342.00976104 1990.17874999 -1346.5 1986.5 C-1353.64854276 1980.64439247 -1360.82606826 1974.82444621 -1368 1969 C-1376.04170892 1962.47101384 -1384.08106785 1955.93960706 -1392.09375 1949.375 C-1395.72305284 1946.40911811 -1399.36129332 1943.45433168 -1403 1940.5 C-1407.50644208 1936.84113827 -1412.00976104 1933.17874999 -1416.5 1929.5 C-1423.64854276 1923.64439247 -1430.82606826 1917.82444621 -1438 1912 C-1446.04818289 1905.46575769 -1454.09358329 1898.92857452 -1462.11328125 1892.359375 C-1468.39627699 1887.2241525 -1474.70028106 1882.11468124 -1481 1877 C-1489.04170892 1870.47101384 -1497.08106785 1863.93960706 -1505.09375 1857.375 C-1508.72305284 1854.40911811 -1512.36129332 1851.45433168 -1516 1848.5 C-1520.50644208 1844.84113827 -1525.00976104 1841.17874999 -1529.5 1837.5 C-1536.64854276 1831.64439247 -1543.82606826 1825.82444621 -1551 1820 C-1559.04170892 1813.47101384 -1567.08106785 1806.93960706 -1575.09375 1800.375 C-1578.72305284 1797.40911811 -1582.36129332 1794.45433168 -1586 1791.5 C-1590.50644208 1787.84113827 -1595.00976104 1784.17874999 -1599.5 1780.5 C-1606.64854276 1774.64439247 -1613.82606826 1768.82444621 -1621 1763 C-1629.04170892 1756.47101384 -1637.08106785 1749.93960706 -1645.09375 1743.375 C-1648.72305284 1740.40911811 -1652.36129332 1737.45433168 -1656 1734.5 C-1660.50644208 1730.84113827 -1665.00976104 1727.17874999 -1669.5 1723.5 C-1676.64854276 1717.64439247 -1683.82606826 1711.82444621 -1691 1706 C-1699.04170892 1699.47101384 -1707.08106785 1692.93960706 -1715.09375 1686.375 C-1718.72305284 1683.40911811 -1722.36129332 1680.45433168 -1726 1677.5 C-1730.50644208 1673.84113827 -1735.00976104 1670.17874999 -1739.5 1666.5 C-1746.64854276 1660.64439247 -1753.82606826 1654.82444621 -1761 1649 C-1769.04170892 1642.47101384 -1777.08106785 1635.93960706 -1785.09375 1629.375 C-1788.72305284 1626.40911811 -1792.36129332 1623.45433168 -1796 1620.5 C-1800.50644208 1616.84113827 -1805.00976104 1613.17874999 -1809.5 1609.5 C-1816.64854276 1603.64439247 -1823.82606826 1597.82444621 -1831 1592 C-1839.04170892 1585.47101384 -1847.08106785 1578.93960706 -1855.09375 1572.375 C-1858.72305284 1569.40911811 -1862.36129332 1566.45433168 -1866 1563.5 C-1870.50644208 1559.84113827 -1875.00976104 1556.17874999 -1879.5 1552.5 C-1883.21108072 1549.46013119 -1886.92851885 1546.42828602 -1890.65234375 1543.40405273 C-1892.0064444 1542.30352108 -1893.35931558 1541.2014749 -1894.7109375 1540.09790039 C-1898.30617896 1537.16649458 -1901.92321368 1534.26975126 -1905.58203125 1531.41796875 C-1906.32171143 1530.83499023 -1907.0613916 1530.25201172 -1907.82348633 1529.65136719 C-1909.24912346 1528.5287679 -1910.68234596 1527.41571987 -1912.1237793 1526.31347656 C-1912.76355713 1525.80655273 -1913.40333496 1525.29962891 -1914.0625 1524.77734375 C-1914.63097656 1524.33640381 -1915.19945312 1523.89546387 -1915.78515625 1523.44116211 C-1917 1522 -1917 1522 -1917 1518 C-1915.75341797 1516.52709961 -1915.75341797 1516.52709961 -1913.9921875 1515.15234375 C-1913.34233887 1514.63526855 -1912.69249023 1514.11819336 -1912.02294922 1513.58544922 C-1911.31412598 1513.04162598 -1910.60530273 1512.49780273 -1909.875 1511.9375 C-1908.78662842 1511.07922607 -1908.78662842 1511.07922607 -1907.67626953 1510.20361328 C-1905.45901649 1508.45834256 -1903.22989499 1506.72907101 -1901 1505 C-1899.76960559 1504.03150563 -1898.5403533 1503.0615577 -1897.3125 1502.08984375 C-1893.31818283 1498.93208287 -1889.30475422 1495.79902529 -1885.29101562 1492.66601562 C-1878.45050602 1487.32308623 -1871.66024217 1481.92815388 -1864.9375 1476.4375 C-1860.15607379 1472.5332111 -1855.34576852 1468.68124883 -1850.4375 1464.9375 C-1845.76317404 1461.37116242 -1841.14666279 1457.74393535 -1836.5625 1454.0625 C-1831.70654847 1450.16279739 -1826.83749818 1446.28175443 -1821.9375 1442.4375 C-1821.07499634 1441.76062134 -1821.07499634 1441.76062134 -1820.19506836 1441.07006836 C-1817.3238633 1438.81835634 -1814.44992789 1436.57017465 -1811.57421875 1434.32421875 C-1805.30926469 1429.42461222 -1799.09752977 1424.46857073 -1792.9375 1419.4375 C-1788.15607379 1415.5332111 -1783.34576852 1411.68124883 -1778.4375 1407.9375 C-1773.76317404 1404.37116242 -1769.14666279 1400.74393535 -1764.5625 1397.0625 C-1759.70654847 1393.16279739 -1754.83749818 1389.28175443 -1749.9375 1385.4375 C-1749.36249756 1384.98624756 -1748.78749512 1384.53499512 -1748.19506836 1384.07006836 C-1745.3238633 1381.81835634 -1742.44992789 1379.57017465 -1739.57421875 1377.32421875 C-1733.30926469 1372.42461222 -1727.09752977 1367.46857073 -1720.9375 1362.4375 C-1716.15607379 1358.5332111 -1711.34576852 1354.68124883 -1706.4375 1350.9375 C-1701.76317404 1347.37116242 -1697.14666279 1343.74393535 -1692.5625 1340.0625 C-1687.70654847 1336.16279739 -1682.83749818 1332.28175443 -1677.9375 1328.4375 C-1677.36249756 1327.98624756 -1676.78749512 1327.53499512 -1676.19506836 1327.07006836 C-1673.3238633 1324.81835634 -1670.44992789 1322.57017465 -1667.57421875 1320.32421875 C-1661.30926469 1315.42461222 -1655.09752977 1310.46857073 -1648.9375 1305.4375 C-1644.15607379 1301.5332111 -1639.34576852 1297.68124883 -1634.4375 1293.9375 C-1629.76317404 1290.37116242 -1625.14666279 1286.74393535 -1620.5625 1283.0625 C-1615.70654847 1279.16279739 -1610.83749818 1275.28175443 -1605.9375 1271.4375 C-1605.36249756 1270.98624756 -1604.78749512 1270.53499512 -1604.19506836 1270.07006836 C-1601.3238633 1267.81835634 -1598.44992789 1265.57017465 -1595.57421875 1263.32421875 C-1589.30926469 1258.42461222 -1583.09752977 1253.46857073 -1576.9375 1248.4375 C-1572.15607379 1244.5332111 -1567.34576852 1240.68124883 -1562.4375 1236.9375 C-1557.76317404 1233.37116242 -1553.14666279 1229.74393535 -1548.5625 1226.0625 C-1543.70654847 1222.16279739 -1538.83749818 1218.28175443 -1533.9375 1214.4375 C-1533.36249756 1213.98624756 -1532.78749512 1213.53499512 -1532.19506836 1213.07006836 C-1529.3238633 1210.81835634 -1526.44992789 1208.57017465 -1523.57421875 1206.32421875 C-1517.30926469 1201.42461222 -1511.09752977 1196.46857073 -1504.9375 1191.4375 C-1500.15607379 1187.5332111 -1495.34576852 1183.68124883 -1490.4375 1179.9375 C-1485.76317404 1176.37116242 -1481.14666279 1172.74393535 -1476.5625 1169.0625 C-1471.70654847 1165.16279739 -1466.83749818 1161.28175443 -1461.9375 1157.4375 C-1461.36249756 1156.98624756 -1460.78749512 1156.53499512 -1460.19506836 1156.07006836 C-1457.3238633 1153.81835634 -1454.44992789 1151.57017465 -1451.57421875 1149.32421875 C-1445.30926469 1144.42461222 -1439.09752977 1139.46857073 -1432.9375 1134.4375 C-1428.15607379 1130.5332111 -1423.34576852 1126.68124883 -1418.4375 1122.9375 C-1413.76317404 1119.37116242 -1409.14666279 1115.74393535 -1404.5625 1112.0625 C-1399.70654847 1108.16279739 -1394.83749818 1104.28175443 -1389.9375 1100.4375 C-1389.36249756 1099.98624756 -1388.78749512 1099.53499512 -1388.19506836 1099.07006836 C-1385.3238633 1096.81835634 -1382.44992789 1094.57017465 -1379.57421875 1092.32421875 C-1373.30926469 1087.42461222 -1367.09752977 1082.46857073 -1360.9375 1077.4375 C-1356.15607379 1073.5332111 -1351.34576852 1069.68124883 -1346.4375 1065.9375 C-1341.76317404 1062.37116242 -1337.14666279 1058.74393535 -1332.5625 1055.0625 C-1327.70654847 1051.16279739 -1322.83749818 1047.28175443 -1317.9375 1043.4375 C-1317.36249756 1042.98624756 -1316.78749512 1042.53499512 -1316.19506836 1042.07006836 C-1313.3238633 1039.81835634 -1310.44992789 1037.57017465 -1307.57421875 1035.32421875 C-1301.30926469 1030.42461222 -1295.09752977 1025.46857073 -1288.9375 1020.4375 C-1284.15607379 1016.5332111 -1279.34576852 1012.68124883 -1274.4375 1008.9375 C-1269.76317404 1005.37116242 -1265.14666279 1001.74393535 -1260.5625 998.0625 C-1255.70654847 994.16279739 -1250.83749818 990.28175443 -1245.9375 986.4375 C-1245.36249756 985.98624756 -1244.78749512 985.53499512 -1244.19506836 985.07006836 C-1241.3238633 982.81835634 -1238.44992789 980.57017465 -1235.57421875 978.32421875 C-1229.30926469 973.42461222 -1223.09752977 968.46857073 -1216.9375 963.4375 C-1212.15607379 959.5332111 -1207.34576852 955.68124883 -1202.4375 951.9375 C-1197.76317404 948.37116242 -1193.14666279 944.74393535 -1188.5625 941.0625 C-1183.70654847 937.16279739 -1178.83749818 933.28175443 -1173.9375 929.4375 C-1173.36249756 928.98624756 -1172.78749512 928.53499512 -1172.19506836 928.07006836 C-1169.3238633 925.81835634 -1166.44992789 923.57017465 -1163.57421875 921.32421875 C-1157.30926469 916.42461222 -1151.09752977 911.46857073 -1144.9375 906.4375 C-1140.15607379 902.5332111 -1135.34576852 898.68124883 -1130.4375 894.9375 C-1125.76317404 891.37116242 -1121.14666279 887.74393535 -1116.5625 884.0625 C-1111.70654847 880.16279739 -1106.83749818 876.28175443 -1101.9375 872.4375 C-1101.36249756 871.98624756 -1100.78749512 871.53499512 -1100.19506836 871.07006836 C-1097.3238633 868.81835634 -1094.44992789 866.57017465 -1091.57421875 864.32421875 C-1085.30926469 859.42461222 -1079.09752977 854.46857073 -1072.9375 849.4375 C-1068.15607379 845.5332111 -1063.34576852 841.68124883 -1058.4375 837.9375 C-1053.76317404 834.37116242 -1049.14666279 830.74393535 -1044.5625 827.0625 C-1039.70654847 823.16279739 -1034.83749818 819.28175443 -1029.9375 815.4375 C-1029.36249756 814.98624756 -1028.78749512 814.53499512 -1028.19506836 814.07006836 C-1025.3238633 811.81835634 -1022.44992789 809.57017465 -1019.57421875 807.32421875 C-1013.30926469 802.42461222 -1007.09752977 797.46857073 -1000.9375 792.4375 C-996.15607379 788.5332111 -991.34576852 784.68124883 -986.4375 780.9375 C-981.76317404 777.37116242 -977.14666279 773.74393535 -972.5625 770.0625 C-967.70654847 766.16279739 -962.83749818 762.28175443 -957.9375 758.4375 C-957.36249756 757.98624756 -956.78749512 757.53499512 -956.19506836 757.07006836 C-953.3238633 754.81835634 -950.44992789 752.57017465 -947.57421875 750.32421875 C-941.30926469 745.42461222 -935.09752977 740.46857073 -928.9375 735.4375 C-924.15607379 731.5332111 -919.34576852 727.68124883 -914.4375 723.9375 C-909.76317404 720.37116242 -905.14666279 716.74393535 -900.5625 713.0625 C-895.70654847 709.16279739 -890.83749818 705.28175443 -885.9375 701.4375 C-885.36249756 700.98624756 -884.78749512 700.53499512 -884.19506836 700.07006836 C-881.3238633 697.81835634 -878.44992789 695.57017465 -875.57421875 693.32421875 C-869.30926469 688.42461222 -863.09752977 683.46857073 -856.9375 678.4375 C-852.15607379 674.5332111 -847.34576852 670.68124883 -842.4375 666.9375 C-837.76317404 663.37116242 -833.14666279 659.74393535 -828.5625 656.0625 C-823.70654847 652.16279739 -818.83749818 648.28175443 -813.9375 644.4375 C-813.36249756 643.98624756 -812.78749512 643.53499512 -812.19506836 643.07006836 C-809.3238633 640.81835634 -806.44992789 638.57017465 -803.57421875 636.32421875 C-797.30926469 631.42461222 -791.09752977 626.46857073 -784.9375 621.4375 C-780.15607379 617.5332111 -775.34576852 613.68124883 -770.4375 609.9375 C-765.76317404 606.37116242 -761.14666279 602.74393535 -756.5625 599.0625 C-751.70654847 595.16279739 -746.83749818 591.28175443 -741.9375 587.4375 C-741.36249756 586.98624756 -740.78749512 586.53499512 -740.19506836 586.07006836 C-737.3238633 583.81835634 -734.44992789 581.57017465 -731.57421875 579.32421875 C-725.30926469 574.42461222 -719.09752977 569.46857073 -712.9375 564.4375 C-708.15607379 560.5332111 -703.34576852 556.68124883 -698.4375 552.9375 C-693.76317404 549.37116242 -689.14666279 545.74393535 -684.5625 542.0625 C-679.70654847 538.16279739 -674.83749818 534.28175443 -669.9375 530.4375 C-669.36249756 529.98624756 -668.78749512 529.53499512 -668.19506836 529.07006836 C-665.3238633 526.81835634 -662.44992789 524.57017465 -659.57421875 522.32421875 C-653.30926469 517.42461222 -647.09752977 512.46857073 -640.9375 507.4375 C-636.15607379 503.5332111 -631.34576852 499.68124883 -626.4375 495.9375 C-621.76317404 492.37116242 -617.14666279 488.74393535 -612.5625 485.0625 C-607.70654847 481.16279739 -602.83749818 477.28175443 -597.9375 473.4375 C-597.36249756 472.98624756 -596.78749512 472.53499512 -596.19506836 472.07006836 C-593.3238633 469.81835634 -590.44992789 467.57017465 -587.57421875 465.32421875 C-581.30926469 460.42461222 -575.09752977 455.46857073 -568.9375 450.4375 C-564.15607379 446.5332111 -559.34576852 442.68124883 -554.4375 438.9375 C-549.76317404 435.37116242 -545.14666279 431.74393535 -540.5625 428.0625 C-535.70654847 424.16279739 -530.83749818 420.28175443 -525.9375 416.4375 C-525.36249756 415.98624756 -524.78749512 415.53499512 -524.19506836 415.07006836 C-521.3238633 412.81835634 -518.44992789 410.57017465 -515.57421875 408.32421875 C-509.30926469 403.42461222 -503.09752977 398.46857073 -496.9375 393.4375 C-492.15607379 389.5332111 -487.34576852 385.68124883 -482.4375 381.9375 C-477.76317404 378.37116242 -473.14666279 374.74393535 -468.5625 371.0625 C-463.70654847 367.16279739 -458.83749818 363.28175443 -453.9375 359.4375 C-453.36249756 358.98624756 -452.78749512 358.53499512 -452.19506836 358.07006836 C-449.3238633 355.81835634 -446.44992789 353.57017465 -443.57421875 351.32421875 C-437.30926469 346.42461222 -431.09752977 341.46857073 -424.9375 336.4375 C-420.15607379 332.5332111 -415.34576852 328.68124883 -410.4375 324.9375 C-405.76317404 321.37116242 -401.14666279 317.74393535 -396.5625 314.0625 C-391.70654847 310.16279739 -386.83749818 306.28175443 -381.9375 302.4375 C-381.36249756 301.98624756 -380.78749512 301.53499512 -380.19506836 301.07006836 C-377.3238633 298.81835634 -374.44992789 296.57017465 -371.57421875 294.32421875 C-365.30926469 289.42461222 -359.09752977 284.46857073 -352.9375 279.4375 C-348.15607379 275.5332111 -343.34576852 271.68124883 -338.4375 267.9375 C-333.76317404 264.37116242 -329.14666279 260.74393535 -324.5625 257.0625 C-319.70654847 253.16279739 -314.83749818 249.28175443 -309.9375 245.4375 C-309.36249756 244.98624756 -308.78749512 244.53499512 -308.19506836 244.07006836 C-305.3238633 241.81835634 -302.44992789 239.57017465 -299.57421875 237.32421875 C-293.30926469 232.42461222 -287.09752977 227.46857073 -280.9375 222.4375 C-276.15607379 218.5332111 -271.34576852 214.68124883 -266.4375 210.9375 C-261.76317404 207.37116242 -257.14666279 203.74393535 -252.5625 200.0625 C-247.70654847 196.16279739 -242.83749818 192.28175443 -237.9375 188.4375 C-237.36249756 187.98624756 -236.78749512 187.53499512 -236.19506836 187.07006836 C-233.3238633 184.81835634 -230.44992789 182.57017465 -227.57421875 180.32421875 C-221.30926469 175.42461222 -215.09752977 170.46857073 -208.9375 165.4375 C-204.15607379 161.5332111 -199.34576852 157.68124883 -194.4375 153.9375 C-189.76317404 150.37116242 -185.14666279 146.74393535 -180.5625 143.0625 C-175.70654847 139.16279739 -170.83749818 135.28175443 -165.9375 131.4375 C-165.36249756 130.98624756 -164.78749512 130.53499512 -164.19506836 130.07006836 C-161.3238633 127.81835634 -158.44992789 125.57017465 -155.57421875 123.32421875 C-149.30926469 118.42461222 -143.09752977 113.46857073 -136.9375 108.4375 C-132.15607379 104.5332111 -127.34576852 100.68124883 -122.4375 96.9375 C-117.76317404 93.37116242 -113.14666279 89.74393535 -108.5625 86.0625 C-103.70654847 82.16279739 -98.83749818 78.28175443 -93.9375 74.4375 C-93.36249756 73.98624756 -92.78749512 73.53499512 -92.19506836 73.07006836 C-89.3238633 70.81835634 -86.44992789 68.57017465 -83.57421875 66.32421875 C-77.30926469 61.42461222 -71.09752977 56.46857073 -64.9375 51.4375 C-60.15607379 47.5332111 -55.34576852 43.68124883 -50.4375 39.9375 C-45.76317404 36.37116242 -41.14666279 32.74393535 -36.5625 29.0625 C-29.41539824 23.32282751 -22.21632254 17.65226136 -15 12 C-12.39515782 9.95919332 -9.79113407 7.91734763 -7.1875 5.875 C-6.27955688 5.16428345 -6.27955688 5.16428345 -5.35327148 4.43920898 C-2.58523119 2.32525639 -2.58523119 2.32525639 0 0 Z " fill="#356AC3" transform="translate(1918,0)"/>
<path d="M0 0 C3.01248351 0.00564836 6.02496136 0.00846394 9.03744888 0.0110817 C37.96575697 0.04760475 66.77293658 0.39466789 95.59888077 3.06482315 C98.46988884 3.33012555 101.34174082 3.58453675 104.21380997 3.83807755 C206.12656594 12.95171086 307.0141121 35.76469537 460.33929825 96.31805801 C461.42162735 96.80210098 462.50395645 97.28614395 463.6190834 97.78485489 C493.95788139 111.41102188 524.2283073 126.00775273 552.89740372 142.88983536 C555.43887108 144.37629647 557.99706134 145.82945676 560.5619545 147.27508926 C583.95311649 160.46333164 606.3955635 174.85071984 628.6569252 189.84247208 C632.04044445 192.11993511 635.43468994 194.38075863 638.83148575 196.63837051 C652.99115942 206.07179567 666.56406707 216.2094183 680.054142 226.57196426 C682.89910288 228.74580617 685.77253112 230.87740405 688.65179825 233.00555801 C695.43063903 238.07032049 701.95779152 243.44313106 708.49847794 248.80926895 C710.11142912 250.13128995 711.72890318 251.44778878 713.34711075 252.76337051 C719.84962586 258.05258835 726.26272435 263.4417954 732.64349747 268.87665176 C734.34164671 270.32005417 736.04520017 271.75687224 737.7494545 273.19305801 C744.72777304 279.09695426 751.49400085 285.18224136 758.14642715 291.4513588 C761.24288447 294.36868894 764.35177638 297.24375365 767.58929825 300.00555801 C771.76925849 303.5948717 775.5869732 307.53555646 779.43304825 311.47430801 C781.56730379 313.61384543 783.79436611 315.60157341 786.085392 317.57196426 C790.90880021 321.7507328 795.40169763 326.23390863 799.90179825 330.75555801 C801.11899551 331.9669545 801.11899551 331.9669545 802.36078262 333.20282364 C806.67643869 337.52544606 810.81741208 341.92983844 814.79999161 346.56048965 C816.87242767 348.92678104 819.08628775 351.12433726 821.33929825 353.31805801 C824.84522867 356.78713932 828.16729088 360.32085128 831.37054825 364.06805801 C833.41729125 366.40719287 835.52382294 368.67919406 837.64520645 370.95038223 C842.71383658 376.37784646 847.54176328 381.91157755 852.194767 387.70477676 C854.3380478 390.31653425 856.56310155 392.82171103 858.83929825 395.31805801 C863.5439784 400.49320618 867.94366168 405.88008641 872.33929825 411.31805801 C873.35012592 412.54925889 874.36189874 413.7796842 875.3744545 415.00946426 C882.39087582 423.55073417 889.13494153 432.25114202 895.71332169 441.13299942 C897.46585856 443.4881353 899.23305382 445.83172159 901.00336075 448.17352676 C901.64031876 449.01754044 902.27727676 449.86155411 902.93353653 450.73114395 C904.14112978 452.33074864 905.35025261 453.92920071 906.56146622 455.52606583 C917.33399437 469.83121224 927.36154112 484.66196438 937.27679825 499.56805801 C937.84578842 500.42245468 938.41477859 501.27685135 939.00101089 502.15713882 C947.36728036 514.72907443 955.59957991 527.34800406 963.33929825 540.31805801 C963.85137833 541.16932266 964.3634584 542.02058731 964.89105606 542.89764786 C982.99840389 573.01989548 999.32972766 603.97790441 1014.91693497 635.4628334 C1015.99929326 637.63553856 1017.08996563 639.80315355 1018.18744278 641.9682045 C1022.81967444 651.12642818 1027.2039582 660.3626205 1031.33929825 669.75555801 C1031.80985641 670.82246368 1031.80985641 670.82246368 1032.28992081 671.910923 C1056.88878214 727.87245033 1076.29824908 786.10167345 1091.33929825 845.31805801 C1091.54061356 846.10893814 1091.74192886 846.89981827 1091.94934464 847.71466446 C1112.26952895 927.78529762 1124.35767535 1011.43831256 1124.54242325 1094.14618301 C1124.54940202 1096.09500525 1124.55644299 1098.04382727 1124.56354141 1099.99264908 C1124.58281526 1106.18445494 1124.58771685 1112.37622542 1124.58929825 1118.56805801 C1124.58988739 1119.62152672 1124.59047653 1120.67499542 1124.59108353 1121.76038742 C1124.60311384 1152.21818104 1124.41066102 1182.52938579 1121.56390762 1212.87878799 C1121.33576063 1215.35647678 1121.12415907 1217.83507816 1120.91742325 1220.31464005 C1113.77128912 1305.6580124 1095.7714728 1389.92627606 1069.33929825 1471.31805801 C1069.0907106 1472.08444595 1068.84212296 1472.85083389 1068.58600235 1473.64044571 C1056.87585458 1509.64335637 1042.95765727 1544.83830986 1027.33929825 1579.31805801 C1026.82367325 1580.46355118 1026.30804825 1581.60904434 1025.77679825 1582.78924942 C1013.05737924 1610.96584505 999.470984 1638.87362574 983.90619278 1665.5944252 C982.2240212 1668.51843676 980.58795551 1671.46488117 978.960392 1674.41962051 C971.46165909 1688.02745731 963.55080143 1701.29162907 955.20062637 1714.39374161 C953.34661248 1717.30656669 951.505574 1720.22723297 949.66742325 1723.15008926 C942.7984319 1734.04849164 935.7433622 1744.77649871 928.33929825 1755.31805801 C927.38736881 1756.68256704 926.43554829 1758.04715206 925.4838295 1759.41180801 C913.85960528 1776.02750852 901.75002967 1792.28284714 889.33929825 1808.31805801 C888.87459122 1808.91924454 888.40988419 1809.52043106 887.93109512 1810.13983536 C874.37836259 1827.63651056 860.22204803 1844.6986534 845.351017 1861.09149551 C843.49195156 1863.14910192 841.66001467 1865.22652565 839.83929825 1867.31805801 C825.36853502 1883.89365952 810.1319867 1899.6932526 794.55731583 1915.23041153 C791.87734544 1917.90496137 789.20284341 1920.58489778 786.52875137 1923.26532364 C784.80055672 1924.99285834 783.07205236 1926.72008327 781.3432045 1928.44696426 C780.16329689 1929.62990822 780.16329689 1929.62990822 778.95955276 1930.83675003 C774.81109918 1934.96781015 770.58815268 1938.94701583 766.14201736 1942.75688553 C762.95490734 1945.51695416 759.90703608 1948.42686624 756.83929825 1951.31805801 C751.75314194 1956.0847337 746.64009803 1960.78988403 741.33929825 1965.31805801 C740.35187637 1966.17270645 739.3644545 1967.02735489 738.34711075 1967.90790176 C729.13753743 1975.86563648 719.77431782 1983.62952079 710.33929825 1991.31805801 C709.7144252 1991.82836563 709.08955215 1992.33867325 708.44574356 1992.86444473 C698.41718355 2001.03656255 688.10779287 2008.81022566 677.73041153 2016.53241348 C675.54958976 2018.16101573 673.37770104 2019.8004445 671.210392 2021.44696426 C631.50981016 2051.57802475 588.92485439 2078.22132615 545.33929825 2102.31805801 C544.3760463 2102.85189102 543.41279434 2103.38572403 542.42035294 2103.9357338 C491.46701122 2132.06500037 438.27861386 2156.23844116 383.37915421 2175.59796524 C381.25138654 2176.34909187 379.12514854 2177.10444868 376.99896622 2177.8600502 C286.74543504 2209.85877339 192.40225709 2229.68533727 30.51117325 2240.52118301 C28.56235101 2240.52816179 26.61352899 2240.53520275 24.66470718 2240.54230118 C18.47290132 2240.56157503 12.28113084 2240.56647661 6.08929825 2240.56805801 C5.03582954 2240.56864716 3.98236084 2240.5692363 2.89696884 2240.56984329 C-27.56082478 2240.58187361 -57.87202953 2240.38942079 -88.22143173 2237.54266739 C-90.69912052 2237.31452039 -93.17772189 2237.10291883 -95.65728378 2236.89618301 C-184.58456578 2229.44963918 -272.22615798 2210.1667607 -445.66070175 2147.31805801 C-446.8994705 2146.77227651 -448.1384068 2146.22687517 -449.37749863 2145.68182755 C-480.71299822 2131.87582503 -511.75391601 2116.98690957 -541.31548691 2099.67645645 C-544.38680379 2097.89748423 -547.49439078 2096.18922212 -550.60699081 2094.4838295 C-597.40825169 2068.8349032 -641.50017986 2037.94893002 -683.66070175 2005.31805801 C-684.26188828 2004.85335098 -684.8630748 2004.38864395 -685.4824791 2003.90985489 C-699.646745 1992.93837001 -713.41163006 1981.48436109 -726.96783066 1969.77264786 C-728.66338466 1968.31575274 -730.36921201 1966.87188322 -732.0786705 1965.43133926 C-740.47412703 1958.33864648 -748.50920252 1950.91732887 -756.48125839 1943.35394669 C-757.99205275 1941.94266472 -759.51849003 1940.54801497 -761.05694199 1939.16693497 C-770.89788546 1930.3142181 -780.20668513 1920.92463729 -789.55303574 1911.55609512 C-791.99457918 1909.10882324 -794.44063166 1906.66611497 -796.8880167 1904.22468662 C-799.25870193 1901.85851309 -801.62553898 1899.48850555 -803.992733 1897.11883926 C-804.85953186 1896.25406464 -805.72633072 1895.38929001 -806.61939621 1894.49831009 C-810.9500918 1890.15099993 -815.14656136 1885.74753584 -819.13441086 1881.08246231 C-821.8330341 1877.96283258 -824.69863483 1874.9987353 -827.53570175 1872.00555801 C-832.42920023 1866.80702371 -837.07180295 1861.49815448 -841.52788925 1855.91571426 C-843.7719945 1853.18250915 -846.12937928 1850.59669209 -848.53570175 1848.00555801 C-852.77867214 1843.39534444 -856.65946838 1838.59878843 -860.48662949 1833.64642715 C-863.58579292 1829.64766431 -866.7941291 1825.77350607 -870.09820175 1821.94305801 C-875.81794456 1815.28196219 -881.0217249 1808.26881267 -886.24370956 1801.21551895 C-888.32491899 1798.42862032 -890.46178681 1795.68790181 -892.59820175 1792.94305801 C-908.14082282 1772.84962736 -922.74152682 1751.85985097 -936.336483 1730.40594864 C-937.70882182 1728.24218729 -939.09060997 1726.08465499 -940.47320175 1723.92743301 C-953.54503174 1703.4614587 -965.91157927 1682.56957214 -977.66070175 1661.31805801 C-978.19453476 1660.35480606 -978.72836777 1659.39155411 -979.27837753 1658.3991127 C-996.70453623 1626.83337611 -1012.517593 1594.48130052 -1026.66070175 1561.31805801 C-1027.15443283 1560.16300766 -1027.15443283 1560.16300766 -1027.65813828 1558.98462296 C-1038.69610598 1533.12640469 -1048.56411659 1506.91914699 -1057.66070175 1480.31805801 C-1057.9176683 1479.56778336 -1058.17463486 1478.8175087 -1058.43938828 1478.04449844 C-1080.55086807 1413.32735586 -1096.26093259 1346.04133374 -1105.66070175 1278.31805801 C-1105.77029221 1277.5315889 -1105.87988266 1276.74511978 -1105.99279404 1275.93481827 C-1109.54819183 1250.25795475 -1111.90542233 1224.51364596 -1113.86382675 1198.66962051 C-1113.96348236 1197.37149933 -1113.96348236 1197.37149933 -1114.06515121 1196.04715347 C-1114.27968737 1193.13828871 -1114.47446241 1190.22888176 -1114.66070175 1187.31805801 C-1114.7030822 1186.65581223 -1114.74546265 1185.99356644 -1114.78912735 1185.31125259 C-1115.58386477 1172.57463222 -1115.83832977 1159.87431198 -1115.86382675 1147.11493301 C-1115.86665413 1146.13189445 -1115.86948151 1145.1488559 -1115.87239456 1144.13602829 C-1115.88727383 1138.90763981 -1115.8965676 1133.679278 -1115.90093613 1128.45087051 C-1115.90526755 1124.24570154 -1115.91896579 1120.04074392 -1115.94195175 1115.83563614 C-1116.43980268 1022.78239054 -1104.21025313 930.52425205 -1060.66070175 769.31805801 C-1060.41211411 768.55167007 -1060.16352646 767.78528214 -1059.90740585 766.99567032 C-1046.91927689 727.06359979 -1032.08896228 686.88852216 -1012.773983 649.54071426 C-1010.06422183 644.22764202 -1007.62641054 638.78597453 -1005.14001083 633.36597061 C-1000.08314563 622.35373168 -994.82030667 611.50726698 -989.03423691 600.8576088 C-987.48145247 597.9866412 -985.95148347 595.10407085 -984.4224205 592.22040176 C-959.8435355 546.0029549 -931.83772176 501.38665789 -900.66070175 459.31805801 C-899.89403183 458.28334366 -899.89403183 458.28334366 -899.11187363 457.22772598 C-895.65368092 452.57171747 -892.1656194 447.9389632 -888.66070175 443.31805801 C-888.23724472 442.75812149 -887.81378769 442.19818497 -887.37749863 441.62128067 C-881.31626312 433.6172799 -875.04069144 425.80601512 -868.6880455 418.03290176 C-866.29780293 415.10708006 -863.93992203 412.15793878 -861.59820175 409.19305801 C-856.95955121 403.37772673 -852.08550798 397.76666412 -847.22515488 392.13690567 C-845.69097711 390.35325643 -844.16643591 388.56186568 -842.64507675 386.76727676 C-836.31515532 379.31044926 -829.8091613 372.05587267 -823.13531113 364.90594864 C-821.16360605 362.78277483 -819.21393045 360.63994444 -817.26348495 358.49725723 C-813.39363449 354.24756462 -809.47487781 350.0783069 -805.36675644 346.0565834 C-803.69614109 344.35417186 -802.1539291 342.59248852 -800.6099205 340.77508926 C-796.04948994 335.53449963 -791.14400694 330.65537895 -786.22320175 325.75555801 C-785.32021347 324.84870255 -784.41722519 323.94184708 -783.48687363 323.00751114 C-778.92571449 318.45295759 -774.30589285 314.05070586 -769.41436386 309.8534584 C-766.86706221 307.62319527 -764.52631196 305.24067088 -762.16070175 302.81805801 C-758.50358999 299.11127945 -754.77105604 295.5650031 -750.80913925 292.18524551 C-748.62833142 290.28992525 -746.50631624 288.33794516 -744.3887291 286.37250137 C-739.19928816 281.55725942 -733.88304065 276.99536416 -728.36382675 272.55633926 C-725.6025435 270.26990097 -722.97531953 267.88197584 -720.34820175 265.44305801 C-715.71371948 261.17827803 -710.8919622 257.27084988 -705.91656113 253.41962051 C-702.15568979 250.50586601 -698.4802463 247.51785737 -694.84820175 244.44305801 C-681.30573422 233.08601514 -666.92733411 222.73747569 -652.66070175 212.31805801 C-651.88516953 211.75022598 -651.1096373 211.18239395 -650.3106041 210.59735489 C-640.95660971 203.75517214 -631.52831889 197.07514866 -621.82671738 190.73456192 C-619.36677962 189.12584248 -616.91236894 187.5088364 -614.45757675 185.89227676 C-577.54362958 161.63892467 -539.54282896 138.72944524 -499.80425644 119.3678627 C-497.14817006 118.06704591 -494.50877672 116.73471022 -491.86968613 115.39984512 C-488.47576097 113.68759066 -485.0683091 112.00287374 -481.66070175 110.31805801 C-480.81604355 109.8986293 -479.97138535 109.47920059 -479.10113144 109.04706192 C-400.22422497 70.02712782 -315.18187345 42.19539433 -216.66070175 21.31805801 C-215.49139114 21.07956131 -215.49139114 21.07956131 -214.2984581 20.83624649 C-177.10558485 13.29253367 -139.48500745 8.17123795 -101.72320175 4.50555801 C-100.71408737 4.40628006 -99.70497299 4.30700211 -98.66527939 4.20471573 C-65.78022267 1.00977474 -33.02615254 -0.06294006 0 0 Z " fill="#A0C3FE" transform="translate(1915.660701751709,1599.681941986084)"/>
<path d="M0 0 C0.66 0 1.32 0 2 0 C2 528 2 1056 2 1600 C-13.18 1600.33 -28.36 1600.66 -44 1601 C-52.01409181 1601.3464035 -60.00113088 1601.70802851 -68 1602.25 C-68.96374542 1602.31280151 -69.92749084 1602.37560303 -70.92044067 1602.44030762 C-164.90772631 1608.62165207 -257.63535532 1626.61800275 -494 1716 C-495.51554579 1716.74365104 -497.0311564 1717.48717001 -498.546875 1718.23046875 C-501.6283557 1719.74917604 -504.69596667 1721.29325712 -507.75585938 1722.85498047 C-509.46408585 1723.72656251 -511.17403565 1724.59476789 -512.88476562 1725.46142578 C-528.31371557 1733.29037964 -543.39310697 1741.54087492 -558.26318359 1750.38330078 C-561.6434614 1752.38010717 -565.04915501 1754.33011651 -568.45800781 1756.27758789 C-578.83545353 1762.21631901 -588.95278377 1768.52057856 -599 1775 C-599.91330078 1775.5882959 -600.82660156 1776.1765918 -601.76757812 1776.78271484 C-631.44735959 1795.93535424 -660.10060003 1816.34147603 -688 1838 C-688.56428711 1838.43666992 -689.12857422 1838.87333984 -689.70996094 1839.32324219 C-697.26109523 1845.17294968 -704.64873781 1851.17353277 -711.91015625 1857.37890625 C-714.77577694 1859.82303334 -717.69405522 1862.19695734 -720.625 1864.5625 C-725.3264318 1868.38496847 -729.78771793 1872.42187108 -734.2421875 1876.52734375 C-736.967911 1878.97122898 -739.76786638 1881.27440553 -742.625 1883.5625 C-747.00610657 1887.09605252 -750.96987026 1890.86176947 -754.89453125 1894.890625 C-756.82178867 1896.82145804 -758.79938564 1898.60672813 -760.875 1900.375 C-765.18692246 1904.0684794 -769.13072066 1908.09772597 -773.09375 1912.15625 C-775.21784255 1914.28559186 -777.43363349 1916.26295308 -779.71484375 1918.22265625 C-784.72682768 1922.5647977 -789.38595612 1927.23981123 -794.0625 1931.9375 C-794.92166016 1932.79279297 -795.78082031 1933.64808594 -796.66601562 1934.52929688 C-801.11638946 1938.98647037 -805.40532259 1943.5137298 -809.50952148 1948.29125977 C-811.40758981 1950.46727618 -813.42808579 1952.48993397 -815.5 1954.5 C-818.82769463 1957.78854528 -821.95336441 1961.16381624 -824.99609375 1964.71484375 C-827.05688398 1967.06486769 -829.17489502 1969.35050216 -831.30810547 1971.63452148 C-836.3789971 1977.06491073 -841.20999944 1982.60063216 -845.86328125 1988.3984375 C-847.95882494 1990.94986729 -850.13963155 1993.38326773 -852.375 1995.8125 C-856.3315862 2000.15859469 -859.96096064 2004.68886768 -863.55761719 2009.33081055 C-867.32059604 2014.17476935 -871.20568994 2018.90701032 -875.125 2023.625 C-880.17095602 2029.7197472 -885.06416911 2035.8865978 -889.73632812 2042.27539062 C-891.21841072 2044.2980783 -892.71060074 2046.31313017 -894.203125 2048.328125 C-897.81526635 2053.20911052 -901.41027168 2058.10251507 -905 2063 C-905.56299805 2063.76683105 -906.12599609 2064.53366211 -906.70605469 2065.32373047 C-914.20799825 2075.55786335 -921.43452285 2085.93625814 -928.39160156 2096.54833984 C-930.09632349 2099.14682461 -931.80988437 2101.73936301 -933.5234375 2104.33203125 C-953.73797319 2135.013805 -972.20307648 2166.58109123 -989.41992188 2199.02783203 C-990.89014973 2201.79336879 -992.37307884 2204.55167028 -993.859375 2207.30859375 C-999.91551186 2218.6209595 -1005.41906547 2230.14686194 -1010.67407227 2241.84912109 C-1011.19412842 2242.99461426 -1011.71418457 2244.14010742 -1012.25 2245.3203125 C-1012.93835938 2246.85582764 -1012.93835938 2246.85582764 -1013.640625 2248.42236328 C-1014.88440657 2250.7808126 -1015.99791979 2252.27394188 -1018 2254 C-1033.18853148 2241.67095813 -1033.18853148 2241.67095813 -1039.5 2236.5 C-1043.99023896 2232.82125001 -1048.49355792 2229.15886173 -1053 2225.5 C-1057.50644208 2221.84113827 -1062.00976104 2218.17874999 -1066.5 2214.5 C-1073.64854276 2208.64439247 -1080.82606826 2202.82444621 -1088 2197 C-1096.04170892 2190.47101384 -1104.08106785 2183.93960706 -1112.09375 2177.375 C-1115.72305284 2174.40911811 -1119.36129332 2171.45433168 -1123 2168.5 C-1127.50644208 2164.84113827 -1132.00976104 2161.17874999 -1136.5 2157.5 C-1143.64854276 2151.64439247 -1150.82606826 2145.82444621 -1158 2140 C-1166.04170892 2133.47101384 -1174.08106785 2126.93960706 -1182.09375 2120.375 C-1185.72305284 2117.40911811 -1189.36129332 2114.45433168 -1193 2111.5 C-1197.50644208 2107.84113827 -1202.00976104 2104.17874999 -1206.5 2100.5 C-1213.64854276 2094.64439247 -1220.82606826 2088.82444621 -1228 2083 C-1236.04170892 2076.47101384 -1244.08106785 2069.93960706 -1252.09375 2063.375 C-1255.72305284 2060.40911811 -1259.36129332 2057.45433168 -1263 2054.5 C-1267.50644208 2050.84113827 -1272.00976104 2047.17874999 -1276.5 2043.5 C-1283.64854276 2037.64439247 -1290.82606826 2031.82444621 -1298 2026 C-1306.04170892 2019.47101384 -1314.08106785 2012.93960706 -1322.09375 2006.375 C-1325.72305284 2003.40911811 -1329.36129332 2000.45433168 -1333 1997.5 C-1337.50644208 1993.84113827 -1342.00976104 1990.17874999 -1346.5 1986.5 C-1353.64854276 1980.64439247 -1360.82606826 1974.82444621 -1368 1969 C-1376.04170892 1962.47101384 -1384.08106785 1955.93960706 -1392.09375 1949.375 C-1395.72305284 1946.40911811 -1399.36129332 1943.45433168 -1403 1940.5 C-1407.50644208 1936.84113827 -1412.00976104 1933.17874999 -1416.5 1929.5 C-1423.64854276 1923.64439247 -1430.82606826 1917.82444621 -1438 1912 C-1446.04818289 1905.46575769 -1454.09358329 1898.92857452 -1462.11328125 1892.359375 C-1468.39627699 1887.2241525 -1474.70028106 1882.11468124 -1481 1877 C-1489.04170892 1870.47101384 -1497.08106785 1863.93960706 -1505.09375 1857.375 C-1508.72305284 1854.40911811 -1512.36129332 1851.45433168 -1516 1848.5 C-1520.50644208 1844.84113827 -1525.00976104 1841.17874999 -1529.5 1837.5 C-1536.64854276 1831.64439247 -1543.82606826 1825.82444621 -1551 1820 C-1559.04170892 1813.47101384 -1567.08106785 1806.93960706 -1575.09375 1800.375 C-1578.72305284 1797.40911811 -1582.36129332 1794.45433168 -1586 1791.5 C-1590.50644208 1787.84113827 -1595.00976104 1784.17874999 -1599.5 1780.5 C-1606.64854276 1774.64439247 -1613.82606826 1768.82444621 -1621 1763 C-1629.04170892 1756.47101384 -1637.08106785 1749.93960706 -1645.09375 1743.375 C-1648.72305284 1740.40911811 -1652.36129332 1737.45433168 -1656 1734.5 C-1660.50644208 1730.84113827 -1665.00976104 1727.17874999 -1669.5 1723.5 C-1676.64854276 1717.64439247 -1683.82606826 1711.82444621 -1691 1706 C-1699.04170892 1699.47101384 -1707.08106785 1692.93960706 -1715.09375 1686.375 C-1718.72305284 1683.40911811 -1722.36129332 1680.45433168 -1726 1677.5 C-1730.50644208 1673.84113827 -1735.00976104 1670.17874999 -1739.5 1666.5 C-1746.64854276 1660.64439247 -1753.82606826 1654.82444621 -1761 1649 C-1769.04170892 1642.47101384 -1777.08106785 1635.93960706 -1785.09375 1629.375 C-1788.72305284 1626.40911811 -1792.36129332 1623.45433168 -1796 1620.5 C-1800.50644208 1616.84113827 -1805.00976104 1613.17874999 -1809.5 1609.5 C-1816.64854276 1603.64439247 -1823.82606826 1597.82444621 -1831 1592 C-1839.04170892 1585.47101384 -1847.08106785 1578.93960706 -1855.09375 1572.375 C-1858.72305284 1569.40911811 -1862.36129332 1566.45433168 -1866 1563.5 C-1870.50644208 1559.84113827 -1875.00976104 1556.17874999 -1879.5 1552.5 C-1883.21108072 1549.46013119 -1886.92851885 1546.42828602 -1890.65234375 1543.40405273 C-1892.0064444 1542.30352108 -1893.35931558 1541.2014749 -1894.7109375 1540.09790039 C-1898.30617896 1537.16649458 -1901.92321368 1534.26975126 -1905.58203125 1531.41796875 C-1906.32171143 1530.83499023 -1907.0613916 1530.25201172 -1907.82348633 1529.65136719 C-1909.24912346 1528.5287679 -1910.68234596 1527.41571987 -1912.1237793 1526.31347656 C-1912.76355713 1525.80655273 -1913.40333496 1525.29962891 -1914.0625 1524.77734375 C-1914.63097656 1524.33640381 -1915.19945312 1523.89546387 -1915.78515625 1523.44116211 C-1917 1522 -1917 1522 -1917 1518 C-1915.75341797 1516.52709961 -1915.75341797 1516.52709961 -1913.9921875 1515.15234375 C-1913.34233887 1514.63526855 -1912.69249023 1514.11819336 -1912.02294922 1513.58544922 C-1911.31412598 1513.04162598 -1910.60530273 1512.49780273 -1909.875 1511.9375 C-1908.78662842 1511.07922607 -1908.78662842 1511.07922607 -1907.67626953 1510.20361328 C-1905.45901649 1508.45834256 -1903.22989499 1506.72907101 -1901 1505 C-1899.76960559 1504.03150563 -1898.5403533 1503.0615577 -1897.3125 1502.08984375 C-1893.31818283 1498.93208287 -1889.30475422 1495.79902529 -1885.29101562 1492.66601562 C-1878.45050602 1487.32308623 -1871.66024217 1481.92815388 -1864.9375 1476.4375 C-1860.15607379 1472.5332111 -1855.34576852 1468.68124883 -1850.4375 1464.9375 C-1845.76317404 1461.37116242 -1841.14666279 1457.74393535 -1836.5625 1454.0625 C-1831.70654847 1450.16279739 -1826.83749818 1446.28175443 -1821.9375 1442.4375 C-1821.07499634 1441.76062134 -1821.07499634 1441.76062134 -1820.19506836 1441.07006836 C-1817.3238633 1438.81835634 -1814.44992789 1436.57017465 -1811.57421875 1434.32421875 C-1805.30926469 1429.42461222 -1799.09752977 1424.46857073 -1792.9375 1419.4375 C-1788.15607379 1415.5332111 -1783.34576852 1411.68124883 -1778.4375 1407.9375 C-1773.76317404 1404.37116242 -1769.14666279 1400.74393535 -1764.5625 1397.0625 C-1759.70654847 1393.16279739 -1754.83749818 1389.28175443 -1749.9375 1385.4375 C-1749.36249756 1384.98624756 -1748.78749512 1384.53499512 -1748.19506836 1384.07006836 C-1745.3238633 1381.81835634 -1742.44992789 1379.57017465 -1739.57421875 1377.32421875 C-1733.30926469 1372.42461222 -1727.09752977 1367.46857073 -1720.9375 1362.4375 C-1716.15607379 1358.5332111 -1711.34576852 1354.68124883 -1706.4375 1350.9375 C-1701.76317404 1347.37116242 -1697.14666279 1343.74393535 -1692.5625 1340.0625 C-1687.70654847 1336.16279739 -1682.83749818 1332.28175443 -1677.9375 1328.4375 C-1677.36249756 1327.98624756 -1676.78749512 1327.53499512 -1676.19506836 1327.07006836 C-1673.3238633 1324.81835634 -1670.44992789 1322.57017465 -1667.57421875 1320.32421875 C-1661.30926469 1315.42461222 -1655.09752977 1310.46857073 -1648.9375 1305.4375 C-1644.15607379 1301.5332111 -1639.34576852 1297.68124883 -1634.4375 1293.9375 C-1629.76317404 1290.37116242 -1625.14666279 1286.74393535 -1620.5625 1283.0625 C-1615.70654847 1279.16279739 -1610.83749818 1275.28175443 -1605.9375 1271.4375 C-1605.36249756 1270.98624756 -1604.78749512 1270.53499512 -1604.19506836 1270.07006836 C-1601.3238633 1267.81835634 -1598.44992789 1265.57017465 -1595.57421875 1263.32421875 C-1589.30926469 1258.42461222 -1583.09752977 1253.46857073 -1576.9375 1248.4375 C-1572.15607379 1244.5332111 -1567.34576852 1240.68124883 -1562.4375 1236.9375 C-1557.76317404 1233.37116242 -1553.14666279 1229.74393535 -1548.5625 1226.0625 C-1543.70654847 1222.16279739 -1538.83749818 1218.28175443 -1533.9375 1214.4375 C-1533.36249756 1213.98624756 -1532.78749512 1213.53499512 -1532.19506836 1213.07006836 C-1529.3238633 1210.81835634 -1526.44992789 1208.57017465 -1523.57421875 1206.32421875 C-1517.30926469 1201.42461222 -1511.09752977 1196.46857073 -1504.9375 1191.4375 C-1500.15607379 1187.5332111 -1495.34576852 1183.68124883 -1490.4375 1179.9375 C-1485.76317404 1176.37116242 -1481.14666279 1172.74393535 -1476.5625 1169.0625 C-1471.70654847 1165.16279739 -1466.83749818 1161.28175443 -1461.9375 1157.4375 C-1461.36249756 1156.98624756 -1460.78749512 1156.53499512 -1460.19506836 1156.07006836 C-1457.3238633 1153.81835634 -1454.44992789 1151.57017465 -1451.57421875 1149.32421875 C-1445.30926469 1144.42461222 -1439.09752977 1139.46857073 -1432.9375 1134.4375 C-1428.15607379 1130.5332111 -1423.34576852 1126.68124883 -1418.4375 1122.9375 C-1413.76317404 1119.37116242 -1409.14666279 1115.74393535 -1404.5625 1112.0625 C-1399.70654847 1108.16279739 -1394.83749818 1104.28175443 -1389.9375 1100.4375 C-1389.36249756 1099.98624756 -1388.78749512 1099.53499512 -1388.19506836 1099.07006836 C-1385.3238633 1096.81835634 -1382.44992789 1094.57017465 -1379.57421875 1092.32421875 C-1373.30926469 1087.42461222 -1367.09752977 1082.46857073 -1360.9375 1077.4375 C-1356.15607379 1073.5332111 -1351.34576852 1069.68124883 -1346.4375 1065.9375 C-1341.76317404 1062.37116242 -1337.14666279 1058.74393535 -1332.5625 1055.0625 C-1327.70654847 1051.16279739 -1322.83749818 1047.28175443 -1317.9375 1043.4375 C-1317.36249756 1042.98624756 -1316.78749512 1042.53499512 -1316.19506836 1042.07006836 C-1313.3238633 1039.81835634 -1310.44992789 1037.57017465 -1307.57421875 1035.32421875 C-1301.30926469 1030.42461222 -1295.09752977 1025.46857073 -1288.9375 1020.4375 C-1284.15607379 1016.5332111 -1279.34576852 1012.68124883 -1274.4375 1008.9375 C-1269.76317404 1005.37116242 -1265.14666279 1001.74393535 -1260.5625 998.0625 C-1255.70654847 994.16279739 -1250.83749818 990.28175443 -1245.9375 986.4375 C-1245.36249756 985.98624756 -1244.78749512 985.53499512 -1244.19506836 985.07006836 C-1241.3238633 982.81835634 -1238.44992789 980.57017465 -1235.57421875 978.32421875 C-1229.30926469 973.42461222 -1223.09752977 968.46857073 -1216.9375 963.4375 C-1212.15607379 959.5332111 -1207.34576852 955.68124883 -1202.4375 951.9375 C-1197.76317404 948.37116242 -1193.14666279 944.74393535 -1188.5625 941.0625 C-1183.70654847 937.16279739 -1178.83749818 933.28175443 -1173.9375 929.4375 C-1173.36249756 928.98624756 -1172.78749512 928.53499512 -1172.19506836 928.07006836 C-1169.3238633 925.81835634 -1166.44992789 923.57017465 -1163.57421875 921.32421875 C-1157.30926469 916.42461222 -1151.09752977 911.46857073 -1144.9375 906.4375 C-1140.15607379 902.5332111 -1135.34576852 898.68124883 -1130.4375 894.9375 C-1125.76317404 891.37116242 -1121.14666279 887.74393535 -1116.5625 884.0625 C-1111.70654847 880.16279739 -1106.83749818 876.28175443 -1101.9375 872.4375 C-1101.36249756 871.98624756 -1100.78749512 871.53499512 -1100.19506836 871.07006836 C-1097.3238633 868.81835634 -1094.44992789 866.57017465 -1091.57421875 864.32421875 C-1085.30926469 859.42461222 -1079.09752977 854.46857073 -1072.9375 849.4375 C-1068.15607379 845.5332111 -1063.34576852 841.68124883 -1058.4375 837.9375 C-1053.76317404 834.37116242 -1049.14666279 830.74393535 -1044.5625 827.0625 C-1039.70654847 823.16279739 -1034.83749818 819.28175443 -1029.9375 815.4375 C-1029.36249756 814.98624756 -1028.78749512 814.53499512 -1028.19506836 814.07006836 C-1025.3238633 811.81835634 -1022.44992789 809.57017465 -1019.57421875 807.32421875 C-1013.30926469 802.42461222 -1007.09752977 797.46857073 -1000.9375 792.4375 C-996.15607379 788.5332111 -991.34576852 784.68124883 -986.4375 780.9375 C-981.76317404 777.37116242 -977.14666279 773.74393535 -972.5625 770.0625 C-967.70654847 766.16279739 -962.83749818 762.28175443 -957.9375 758.4375 C-957.36249756 757.98624756 -956.78749512 757.53499512 -956.19506836 757.07006836 C-953.3238633 754.81835634 -950.44992789 752.57017465 -947.57421875 750.32421875 C-941.30926469 745.42461222 -935.09752977 740.46857073 -928.9375 735.4375 C-924.15607379 731.5332111 -919.34576852 727.68124883 -914.4375 723.9375 C-909.76317404 720.37116242 -905.14666279 716.74393535 -900.5625 713.0625 C-895.70654847 709.16279739 -890.83749818 705.28175443 -885.9375 701.4375 C-885.36249756 700.98624756 -884.78749512 700.53499512 -884.19506836 700.07006836 C-881.3238633 697.81835634 -878.44992789 695.57017465 -875.57421875 693.32421875 C-869.30926469 688.42461222 -863.09752977 683.46857073 -856.9375 678.4375 C-852.15607379 674.5332111 -847.34576852 670.68124883 -842.4375 666.9375 C-837.76317404 663.37116242 -833.14666279 659.74393535 -828.5625 656.0625 C-823.70654847 652.16279739 -818.83749818 648.28175443 -813.9375 644.4375 C-813.36249756 643.98624756 -812.78749512 643.53499512 -812.19506836 643.07006836 C-809.3238633 640.81835634 -806.44992789 638.57017465 -803.57421875 636.32421875 C-797.30926469 631.42461222 -791.09752977 626.46857073 -784.9375 621.4375 C-780.15607379 617.5332111 -775.34576852 613.68124883 -770.4375 609.9375 C-765.76317404 606.37116242 -761.14666279 602.74393535 -756.5625 599.0625 C-751.70654847 595.16279739 -746.83749818 591.28175443 -741.9375 587.4375 C-741.36249756 586.98624756 -740.78749512 586.53499512 -740.19506836 586.07006836 C-737.3238633 583.81835634 -734.44992789 581.57017465 -731.57421875 579.32421875 C-725.30926469 574.42461222 -719.09752977 569.46857073 -712.9375 564.4375 C-708.15607379 560.5332111 -703.34576852 556.68124883 -698.4375 552.9375 C-693.76317404 549.37116242 -689.14666279 545.74393535 -684.5625 542.0625 C-679.70654847 538.16279739 -674.83749818 534.28175443 -669.9375 530.4375 C-669.36249756 529.98624756 -668.78749512 529.53499512 -668.19506836 529.07006836 C-665.3238633 526.81835634 -662.44992789 524.57017465 -659.57421875 522.32421875 C-653.30926469 517.42461222 -647.09752977 512.46857073 -640.9375 507.4375 C-636.15607379 503.5332111 -631.34576852 499.68124883 -626.4375 495.9375 C-621.76317404 492.37116242 -617.14666279 488.74393535 -612.5625 485.0625 C-607.70654847 481.16279739 -602.83749818 477.28175443 -597.9375 473.4375 C-597.36249756 472.98624756 -596.78749512 472.53499512 -596.19506836 472.07006836 C-593.3238633 469.81835634 -590.44992789 467.57017465 -587.57421875 465.32421875 C-581.30926469 460.42461222 -575.09752977 455.46857073 -568.9375 450.4375 C-564.15607379 446.5332111 -559.34576852 442.68124883 -554.4375 438.9375 C-549.76317404 435.37116242 -545.14666279 431.74393535 -540.5625 428.0625 C-535.70654847 424.16279739 -530.83749818 420.28175443 -525.9375 416.4375 C-525.36249756 415.98624756 -524.78749512 415.53499512 -524.19506836 415.07006836 C-521.3238633 412.81835634 -518.44992789 410.57017465 -515.57421875 408.32421875 C-509.30926469 403.42461222 -503.09752977 398.46857073 -496.9375 393.4375 C-492.15607379 389.5332111 -487.34576852 385.68124883 -482.4375 381.9375 C-477.76317404 378.37116242 -473.14666279 374.74393535 -468.5625 371.0625 C-463.70654847 367.16279739 -458.83749818 363.28175443 -453.9375 359.4375 C-453.36249756 358.98624756 -452.78749512 358.53499512 -452.19506836 358.07006836 C-449.3238633 355.81835634 -446.44992789 353.57017465 -443.57421875 351.32421875 C-437.30926469 346.42461222 -431.09752977 341.46857073 -424.9375 336.4375 C-420.15607379 332.5332111 -415.34576852 328.68124883 -410.4375 324.9375 C-405.76317404 321.37116242 -401.14666279 317.74393535 -396.5625 314.0625 C-391.70654847 310.16279739 -386.83749818 306.28175443 -381.9375 302.4375 C-381.36249756 301.98624756 -380.78749512 301.53499512 -380.19506836 301.07006836 C-377.3238633 298.81835634 -374.44992789 296.57017465 -371.57421875 294.32421875 C-365.30926469 289.42461222 -359.09752977 284.46857073 -352.9375 279.4375 C-348.15607379 275.5332111 -343.34576852 271.68124883 -338.4375 267.9375 C-333.76317404 264.37116242 -329.14666279 260.74393535 -324.5625 257.0625 C-319.70654847 253.16279739 -314.83749818 249.28175443 -309.9375 245.4375 C-309.36249756 244.98624756 -308.78749512 244.53499512 -308.19506836 244.07006836 C-305.3238633 241.81835634 -302.44992789 239.57017465 -299.57421875 237.32421875 C-293.30926469 232.42461222 -287.09752977 227.46857073 -280.9375 222.4375 C-276.15607379 218.5332111 -271.34576852 214.68124883 -266.4375 210.9375 C-261.76317404 207.37116242 -257.14666279 203.74393535 -252.5625 200.0625 C-247.70654847 196.16279739 -242.83749818 192.28175443 -237.9375 188.4375 C-237.36249756 187.98624756 -236.78749512 187.53499512 -236.19506836 187.07006836 C-233.3238633 184.81835634 -230.44992789 182.57017465 -227.57421875 180.32421875 C-221.30926469 175.42461222 -215.09752977 170.46857073 -208.9375 165.4375 C-204.15607379 161.5332111 -199.34576852 157.68124883 -194.4375 153.9375 C-189.76317404 150.37116242 -185.14666279 146.74393535 -180.5625 143.0625 C-175.70654847 139.16279739 -170.83749818 135.28175443 -165.9375 131.4375 C-165.36249756 130.98624756 -164.78749512 130.53499512 -164.19506836 130.07006836 C-161.3238633 127.81835634 -158.44992789 125.57017465 -155.57421875 123.32421875 C-149.30926469 118.42461222 -143.09752977 113.46857073 -136.9375 108.4375 C-132.15607379 104.5332111 -127.34576852 100.68124883 -122.4375 96.9375 C-117.76317404 93.37116242 -113.14666279 89.74393535 -108.5625 86.0625 C-103.70654847 82.16279739 -98.83749818 78.28175443 -93.9375 74.4375 C-93.36249756 73.98624756 -92.78749512 73.53499512 -92.19506836 73.07006836 C-89.3238633 70.81835634 -86.44992789 68.57017465 -83.57421875 66.32421875 C-77.30926469 61.42461222 -71.09752977 56.46857073 -64.9375 51.4375 C-60.15607379 47.5332111 -55.34576852 43.68124883 -50.4375 39.9375 C-45.76317404 36.37116242 -41.14666279 32.74393535 -36.5625 29.0625 C-29.41539824 23.32282751 -22.21632254 17.65226136 -15 12 C-12.39515782 9.95919332 -9.79113407 7.91734763 -7.1875 5.875 C-6.27955688 5.16428345 -6.27955688 5.16428345 -5.35327148 4.43920898 C-2.58523119 2.32525639 -2.58523119 2.32525639 0 0 Z " fill="#4185F4" transform="translate(1918,0)"/>
<path d="M0 0 C3.01248351 0.00564836 6.02496136 0.00846394 9.03744888 0.0110817 C37.96575697 0.04760475 66.77293658 0.39466789 95.59888077 3.06482315 C98.46988884 3.33012555 101.34174082 3.58453675 104.21380997 3.83807755 C206.12656594 12.95171086 307.0141121 35.76469537 460.33929825 96.31805801 C461.42162735 96.80210098 462.50395645 97.28614395 463.6190834 97.78485489 C493.95788139 111.41102188 524.2283073 126.00775273 552.89740372 142.88983536 C555.43887108 144.37629647 557.99706134 145.82945676 560.5619545 147.27508926 C583.95311649 160.46333164 606.3955635 174.85071984 628.6569252 189.84247208 C632.04044445 192.11993511 635.43468994 194.38075863 638.83148575 196.63837051 C652.99115942 206.07179567 666.56406707 216.2094183 680.054142 226.57196426 C682.89910288 228.74580617 685.77253112 230.87740405 688.65179825 233.00555801 C695.43063903 238.07032049 701.95779152 243.44313106 708.49847794 248.80926895 C710.11142912 250.13128995 711.72890318 251.44778878 713.34711075 252.76337051 C719.84962586 258.05258835 726.26272435 263.4417954 732.64349747 268.87665176 C734.34164671 270.32005417 736.04520017 271.75687224 737.7494545 273.19305801 C744.72777304 279.09695426 751.49400085 285.18224136 758.14642715 291.4513588 C761.24288447 294.36868894 764.35177638 297.24375365 767.58929825 300.00555801 C771.76925849 303.5948717 775.5869732 307.53555646 779.43304825 311.47430801 C781.56730379 313.61384543 783.79436611 315.60157341 786.085392 317.57196426 C790.90880021 321.7507328 795.40169763 326.23390863 799.90179825 330.75555801 C801.11899551 331.9669545 801.11899551 331.9669545 802.36078262 333.20282364 C806.67643869 337.52544606 810.81741208 341.92983844 814.79999161 346.56048965 C816.87242767 348.92678104 819.08628775 351.12433726 821.33929825 353.31805801 C824.84522867 356.78713932 828.16729088 360.32085128 831.37054825 364.06805801 C833.41729125 366.40719287 835.52382294 368.67919406 837.64520645 370.95038223 C842.71383658 376.37784646 847.54176328 381.91157755 852.194767 387.70477676 C854.3380478 390.31653425 856.56310155 392.82171103 858.83929825 395.31805801 C863.5439784 400.49320618 867.94366168 405.88008641 872.33929825 411.31805801 C873.35012592 412.54925889 874.36189874 413.7796842 875.3744545 415.00946426 C882.39087582 423.55073417 889.13494153 432.25114202 895.71332169 441.13299942 C897.46585856 443.4881353 899.23305382 445.83172159 901.00336075 448.17352676 C901.64031876 449.01754044 902.27727676 449.86155411 902.93353653 450.73114395 C904.14112978 452.33074864 905.35025261 453.92920071 906.56146622 455.52606583 C917.33399437 469.83121224 927.36154112 484.66196438 937.27679825 499.56805801 C937.84578842 500.42245468 938.41477859 501.27685135 939.00101089 502.15713882 C947.36728036 514.72907443 955.59957991 527.34800406 963.33929825 540.31805801 C963.85137833 541.16932266 964.3634584 542.02058731 964.89105606 542.89764786 C979.31006437 566.8842053 992.65928445 591.37836236 1005.33929825 616.31805801 C1005.9097084 617.43696426 1006.48011856 618.55587051 1007.06781387 619.70868301 C1008.64355347 622.80461322 1010.21219715 625.90398617 1011.77679825 629.00555801 C1012.24368057 629.92619034 1012.7105629 630.84682266 1013.19159317 631.79535294 C1013.81964859 633.04989273 1013.81964859 633.04989273 1014.460392 634.32977676 C1015.00844498 635.41971939 1015.00844498 635.41971939 1015.56756973 636.53168106 C1016.33929825 638.31805801 1016.33929825 638.31805801 1016.33929825 640.31805801 C348.41929825 640.31805801 -319.50070175 640.31805801 -1007.66070175 640.31805801 C-1006.07410054 635.55825437 -1004.30234512 631.14047648 -1002.16070175 626.63055801 C-1001.80959335 625.88926651 -1001.45848495 625.14797501 -1001.09673691 624.38422012 C-997.31786006 616.48661558 -993.25039074 608.75028246 -989.11480331 601.03485489 C-987.53667143 598.08632372 -985.96987493 595.13190163 -984.40288925 592.17743301 C-959.81417665 545.98045782 -931.83000024 501.37623888 -900.66070175 459.31805801 C-900.14958847 458.62824844 -899.63847519 457.93843887 -899.11187363 457.22772598 C-895.65368092 452.57171747 -892.1656194 447.9389632 -888.66070175 443.31805801 C-888.23724472 442.75812149 -887.81378769 442.19818497 -887.37749863 441.62128067 C-881.31626312 433.6172799 -875.04069144 425.80601512 -868.6880455 418.03290176 C-866.29780293 415.10708006 -863.93992203 412.15793878 -861.59820175 409.19305801 C-856.95955121 403.37772673 -852.08550798 397.76666412 -847.22515488 392.13690567 C-845.69097711 390.35325643 -844.16643591 388.56186568 -842.64507675 386.76727676 C-836.31515532 379.31044926 -829.8091613 372.05587267 -823.13531113 364.90594864 C-821.16360605 362.78277483 -819.21393045 360.63994444 -817.26348495 358.49725723 C-813.39363449 354.24756462 -809.47487781 350.0783069 -805.36675644 346.0565834 C-803.69614109 344.35417186 -802.1539291 342.59248852 -800.6099205 340.77508926 C-796.04948994 335.53449963 -791.14400694 330.65537895 -786.22320175 325.75555801 C-784.86871933 324.39527481 -784.86871933 324.39527481 -783.48687363 323.00751114 C-778.92571449 318.45295759 -774.30589285 314.05070586 -769.41436386 309.8534584 C-766.86706221 307.62319527 -764.52631196 305.24067088 -762.16070175 302.81805801 C-758.50358999 299.11127945 -754.77105604 295.5650031 -750.80913925 292.18524551 C-748.62833142 290.28992525 -746.50631624 288.33794516 -744.3887291 286.37250137 C-739.19928816 281.55725942 -733.88304065 276.99536416 -728.36382675 272.55633926 C-725.6025435 270.26990097 -722.97531953 267.88197584 -720.34820175 265.44305801 C-715.71371948 261.17827803 -710.8919622 257.27084988 -705.91656113 253.41962051 C-702.15568979 250.50586601 -698.4802463 247.51785737 -694.84820175 244.44305801 C-681.30573422 233.08601514 -666.92733411 222.73747569 -652.66070175 212.31805801 C-651.88516953 211.75022598 -651.1096373 211.18239395 -650.3106041 210.59735489 C-640.95660971 203.75517214 -631.52831889 197.07514866 -621.82671738 190.73456192 C-619.36677962 189.12584248 -616.91236894 187.5088364 -614.45757675 185.89227676 C-577.54362958 161.63892467 -539.54282896 138.72944524 -499.80425644 119.3678627 C-497.14817006 118.06704591 -494.50877672 116.73471022 -491.86968613 115.39984512 C-488.47576097 113.68759066 -485.0683091 112.00287374 -481.66070175 110.31805801 C-480.81604355 109.8986293 -479.97138535 109.47920059 -479.10113144 109.04706192 C-400.22422497 70.02712782 -315.18187345 42.19539433 -216.66070175 21.31805801 C-215.49139114 21.07956131 -215.49139114 21.07956131 -214.2984581 20.83624649 C-177.10558485 13.29253367 -139.48500745 8.17123795 -101.72320175 4.50555801 C-100.71408737 4.40628006 -99.70497299 4.30700211 -98.66527939 4.20471573 C-65.78022267 1.00977474 -33.02615254 -0.06294006 0 0 Z " fill="#75A6F9" transform="translate(1915.660701751709,1599.681941986084)"/>
</svg>
